<svg id="dashboard-interface" xmlns="http://www.w3.org/2000/svg" width="18" height="18" viewBox="0 0 18 18">
  <g id="Group_1254" data-name="Group 1254">
    <path id="Path_80" data-name="Path 80" d="M16.875,4.566H1.125A1.135,1.135,0,0,1,0,3.425V1.142A1.135,1.135,0,0,1,1.125,0h15.75A1.135,1.135,0,0,1,18,1.142V3.425A1.135,1.135,0,0,1,16.875,4.566ZM1.125.761a.378.378,0,0,0-.375.381V3.425a.378.378,0,0,0,.375.381h15.75a.378.378,0,0,0,.375-.381V1.142a.378.378,0,0,0-.375-.381Z"/>
  </g>
  <g id="Group_1255" data-name="Group 1255" transform="translate(0 5.823)">
    <path id="Path_81" data-name="Path 81" d="M7.23,20.177H1.142A1.143,1.143,0,0,1,0,19.035V9.142A1.143,1.143,0,0,1,1.142,8H7.23A1.143,1.143,0,0,1,8.372,9.142v9.894A1.143,1.143,0,0,1,7.23,20.177ZM1.142,8.761a.381.381,0,0,0-.381.381v9.894a.381.381,0,0,0,.381.381H7.23a.381.381,0,0,0,.381-.381V9.142a.381.381,0,0,0-.381-.381Z" transform="translate(0 -8)"/>
  </g>
  <g id="Group_1256" data-name="Group 1256" transform="translate(9.628 5.964)">
    <path id="Path_82" data-name="Path 82" d="M20.23,13.327H14.142A1.143,1.143,0,0,1,13,12.186V9.142A1.143,1.143,0,0,1,14.142,8H20.23a1.143,1.143,0,0,1,1.142,1.142v3.044A1.143,1.143,0,0,1,20.23,13.327ZM14.142,8.761a.381.381,0,0,0-.381.381v3.044a.381.381,0,0,0,.381.381H20.23a.381.381,0,0,0,.381-.381V9.142a.381.381,0,0,0-.381-.381Z" transform="translate(-13 -8)"/>
  </g>
  <g id="Group_1257" data-name="Group 1257" transform="translate(9.628 12.673)">
    <path id="Path_83" data-name="Path 83" d="M20.23,22.327H14.142A1.143,1.143,0,0,1,13,21.186V18.142A1.143,1.143,0,0,1,14.142,17H20.23a1.143,1.143,0,0,1,1.142,1.142v3.044A1.143,1.143,0,0,1,20.23,22.327Zm-6.089-4.566a.381.381,0,0,0-.381.381v3.044a.381.381,0,0,0,.381.381H20.23a.381.381,0,0,0,.381-.381V18.142a.381.381,0,0,0-.381-.381Z" transform="translate(-13 -17)"/>
  </g>
</svg>
