<svg xmlns="http://www.w3.org/2000/svg" width="15" height="15" viewBox="0 0 15 15">
  <path id="exit" d="M11.077,11.484v1.172A2.346,2.346,0,0,1,8.733,15H2.844A2.346,2.346,0,0,1,.5,12.656V2.344A2.346,2.346,0,0,1,2.844,0H8.733a2.346,2.346,0,0,1,2.344,2.344V3.516a.586.586,0,0,1-1.172,0V2.344A1.173,1.173,0,0,0,8.733,1.172H2.844A1.173,1.173,0,0,0,1.672,2.344V12.656a1.173,1.173,0,0,0,1.172,1.172H8.733A1.173,1.173,0,0,0,9.9,12.656V11.484a.586.586,0,0,1,1.172,0Zm3.995-4.991L13.759,5.181a.586.586,0,1,0-.829.829l.933.933H6.828a.586.586,0,1,0,0,1.172h7.036l-.933.933a.586.586,0,1,0,.829.829l1.312-1.312a1.466,1.466,0,0,0,0-2.072Zm0,0" transform="translate(-0.5)"/>
</svg>
