<svg id="help" xmlns="http://www.w3.org/2000/svg" width="18" height="18" viewBox="0 0 18 18">
  <path id="Path_96" data-name="Path 96" d="M18,12.182a5.832,5.832,0,0,0-4.261-5.607A6.873,6.873,0,1,0,.953,10.367L.025,13.721l3.354-.928a6.848,6.848,0,0,0,3.2.946,5.82,5.82,0,0,0,8.567,3.452l2.832.783-.783-2.832A5.8,5.8,0,0,0,18,12.182ZM3.546,11.653l-2.008.555L2.093,10.2,1.967,10a5.816,5.816,0,1,1,1.777,1.777Zm12.916,4.809-1.49-.412-.2.13A4.765,4.765,0,0,1,7.665,13.7,6.886,6.886,0,0,0,13.7,7.665a4.766,4.766,0,0,1,2.479,7.108l-.13.2Zm0,0"/>
  <path id="Path_97" data-name="Path 97" d="M180.5,271h1.055v1.055H180.5Zm0,0" transform="translate(-174.154 -261.473)"/>
  <path id="Path_98" data-name="Path 98" d="M138.664,92.109a1.044,1.044,0,0,1-.343.779l-1.239,1.134v1.287h1.055v-.822l.9-.82a2.109,2.109,0,1,0-3.533-1.557h1.055a1.055,1.055,0,0,1,2.109,0Zm0,0" transform="translate(-130.736 -86.836)"/>
</svg>
