<?xml version="1.0" standalone="no"?>
<!DOCTYPE svg PUBLIC "-//W3C//DTD SVG 1.1//EN" "http://www.w3.org/Graphics/SVG/1.1/DTD/svg11.dtd" >
<svg xmlns="http://www.w3.org/2000/svg" xmlns:xlink="http://www.w3.org/1999/xlink" version="1.1">
<metadata>
Created by FontForge 20170731 at Tue Dec 29 18:14:38 2020
 By Aleksey,,,
Pangram Pangram 2015
</metadata>
<defs>
<font id="Pangram-Regular" horiz-adv-x="0" >
  <font-face 
    font-family="Pangram"
    font-weight="400"
    font-stretch="normal"
    units-per-em="2048"
    panose-1="0 0 5 0 0 0 0 0 0 0"
    ascent="1638"
    descent="-410"
    x-height="1036"
    cap-height="1454"
    bbox="-1587 -514 2642 2054"
    underline-thickness="102"
    underline-position="-307"
    unicode-range="U+0020-25CA"
  />
<missing-glyph horiz-adv-x="1003" 
d="M823 1536v-2007h-637v2007h637zM668 1401h-330v-66h129v-73h-131v-68h332v68h-131v73h131v66zM537 1143h-201v-209h332v67h-131v142zM467 1075v-74h-66v74h66zM668 881h-332v-68h131v-74h-131v-65h201v139h131v68zM668 760h-66v-133h-266v-68h332v201zM668 514h-201v-113
h70v48h65v-95h-201v160h-65v-227h332v227zM668 168h-332v-227h332v227zM602 100v-94h-201v94h201zM668 -106h-332v-66h139l-139 -94v-66h332v66h-205l141 94h64v66z" />
    <glyph glyph-name=".notdef" horiz-adv-x="1003" 
d="M823 1536v-2007h-637v2007h637zM668 1401h-330v-66h129v-73h-131v-68h332v68h-131v73h131v66zM537 1143h-201v-209h332v67h-131v142zM467 1075v-74h-66v74h66zM668 881h-332v-68h131v-74h-131v-65h201v139h131v68zM668 760h-66v-133h-266v-68h332v201zM668 514h-201v-113
h70v48h65v-95h-201v160h-65v-227h332v227zM668 168h-332v-227h332v227zM602 100v-94h-201v94h201zM668 -106h-332v-66h139l-139 -94v-66h332v66h-205l141 94h64v66z" />
    <glyph glyph-name=".null" 
 />
    <glyph glyph-name="nonmarkingreturn" horiz-adv-x="682" 
 />
    <glyph glyph-name="space" unicode=" " horiz-adv-x="520" 
 />
    <glyph glyph-name="exclam" unicode="!" horiz-adv-x="456" 
d="M168 399l-8 1055h176l-10 -1055h-158zM248 -20q-41 0 -71 29.5t-30 70.5q0 42 29.5 71t71.5 29q43 0 71.5 -28.5t28.5 -71.5q0 -42 -29 -71t-71 -29z" />
    <glyph glyph-name="quotedbl" unicode="&#x22;" horiz-adv-x="698" 
d="M477 1491h139v-393h-139v393zM225 1491h140v-393h-140v393z" />
    <glyph glyph-name="numbersign" unicode="#" horiz-adv-x="1562" 
d="M1440 872h-252l-39 -358h229v-174h-248l-36 -340h-170l37 340h-365l-35 -340h-172l37 340h-262v174h280l39 358h-258v177h277l43 405h172l-45 -405h364l43 405h170l-43 -405h234v-177zM979 514l39 358h-365l-37 -358h363z" />
    <glyph glyph-name="dollar" unicode="$" horiz-adv-x="1320" 
d="M1139 348q0 -164 -119.5 -263.5t-306.5 -104.5v-144h-60v146q-181 12 -299 131t-127 293h176q7 -114 78 -181t172 -78v521l-2 2q-86 46 -140 79t-107.5 75t-82 82.5t-46 94t-17.5 117.5q0 151 113.5 251t281.5 106v143h60v-145q160 -13 262.5 -125t111.5 -271h-176
q-8 91 -61.5 153.5t-136.5 74.5v-478q84 -43 143 -78.5t116 -81t91 -91t55 -103.5t21 -125zM434 1110q0 -48 14.5 -85.5t48 -67.5t66.5 -51t90 -50v453q-94 -6 -156.5 -61t-62.5 -138zM713 145q117 4 184.5 62t67.5 147q0 93 -63 156t-189 129v-494z" />
    <glyph glyph-name="percent" unicode="%" horiz-adv-x="2048" 
d="M543 799q-141 0 -239.5 98.5t-98.5 239.5t98.5 239.5t239.5 98.5t239.5 -98.5t98.5 -239.5t-98.5 -239.5t-239.5 -98.5zM1671 1454l-1098 -1454h-165l1097 1454h166zM543 930q88 0 147.5 59.5t59.5 147.5t-59.5 147t-147.5 59t-147.5 -59t-59.5 -147t59.5 -147.5
t147.5 -59.5zM1546 -20q-141 0 -239.5 98t-98.5 239t98.5 239.5t239.5 98.5t239.5 -98.5t98.5 -239.5t-98.5 -239t-239.5 -98zM1546 111q88 0 148.5 59.5t60.5 146.5q0 88 -60.5 147.5t-148.5 59.5t-147.5 -59.5t-59.5 -147.5t59.5 -147t147.5 -59z" />
    <glyph glyph-name="ampersand" unicode="&#x26;" horiz-adv-x="1597" 
d="M1434 0h-211l-105 104q-159 -124 -399 -124q-120 0 -218.5 35t-162.5 96t-98.5 141t-34.5 170q0 129 67 226.5t160 146.5q-71 76 -102 145t-31 156q0 73 28 140t81 120.5t137.5 86t189.5 32.5q128 0 225.5 -58.5t146 -152t48.5 -203.5h-174q0 110 -68 179t-184 69
q-115 0 -185.5 -66.5t-70.5 -163.5q0 -40 11 -75t36.5 -69.5t44.5 -55t58 -58.5l479 -485q88 131 88 301h-100v94h276q0 -321 -143 -518zM737 145q144 0 260 82l-467 469q-64 -28 -106.5 -90.5t-42.5 -146.5q0 -131 97.5 -222.5t258.5 -91.5z" />
    <glyph glyph-name="quotesingle" unicode="'" horiz-adv-x="446" 
d="M225 1491h140v-393h-140v393z" />
    <glyph glyph-name="parenleft" unicode="(" horiz-adv-x="749" 
d="M586 1454v-166q-42 0 -82.5 -12.5t-79 -39t-61.5 -76.5t-23 -118v-794q0 -67 23.5 -117t61.5 -77t78.5 -39.5t82.5 -12.5v-166q-195 0 -308.5 101.5t-113.5 310.5v794q0 209 113.5 310.5t308.5 101.5z" />
    <glyph glyph-name="parenright" unicode=")" horiz-adv-x="729" 
d="M143 1454q195 0 308.5 -101.5t113.5 -310.5v-794q0 -209 -113.5 -310.5t-308.5 -101.5v166q42 0 82.5 12.5t78.5 39.5t61.5 77t23.5 117v794q0 68 -23 118t-61.5 76.5t-79 39t-82.5 12.5v166z" />
    <glyph glyph-name="asterisk" unicode="*" horiz-adv-x="1071" 
d="M686 780l-121 246l-119 -244l-120 70l149 223l-270 -16v139l272 -18l-151 225l120 70l119 -242l121 244l121 -70l-152 -227l273 18v-139l-273 18l152 -227z" />
    <glyph glyph-name="plus" unicode="+" horiz-adv-x="1159" 
d="M952 668v-166h-290v-289h-166v289h-291v166h291v293h166v-293h290z" />
    <glyph glyph-name="comma" unicode="," horiz-adv-x="444" 
d="M154 117h188l-139 -391h-142z" />
    <glyph glyph-name="hyphen" unicode="-" horiz-adv-x="1071" 
d="M182 637h748v-166h-748v166z" />
    <glyph glyph-name="period" unicode="." horiz-adv-x="364" 
d="M162 -20q-41 0 -71 29.5t-30 70.5q0 42 29.5 71t71.5 29q43 0 71.5 -28.5t28.5 -71.5q0 -42 -29 -71t-71 -29z" />
    <glyph glyph-name="slash" unicode="/" horiz-adv-x="862" 
d="M801 1454l-545 -1454h-154l545 1454h154z" />
    <glyph glyph-name="zero" unicode="0" horiz-adv-x="1351" 
d="M696 1475q105 0 201.5 -36.5t170.5 -101.5t117.5 -162.5t43.5 -213.5v-467q0 -116 -43.5 -213.5t-117.5 -162.5t-170.5 -101.5t-201.5 -36.5t-201.5 36.5t-170 101.5t-117 162.5t-43.5 213.5v467q0 116 43.5 213.5t117 162.5t170 101.5t201.5 36.5zM696 145
q150 0 253.5 98.5t103.5 250.5v467q0 152 -103.5 250t-253.5 98t-253 -98t-103 -250v-467q0 -152 103 -250.5t253 -98.5z" />
    <glyph glyph-name="one" unicode="1" horiz-adv-x="1097" 
d="M657 166h338v-166h-852v166h338v1071l-280 -70v176l456 111v-1288z" />
    <glyph glyph-name="two" unicode="2" horiz-adv-x="1339" 
d="M1196 1020q0 -80 -28.5 -151t-77 -125t-111 -102t-131.5 -87t-138 -75t-131.5 -71.5t-111 -71.5t-77 -79.5t-28.5 -91.5h834v-166h-1012v166q0 76 36 143.5t94.5 117t134 98t153.5 87.5t153.5 86t134 92t94.5 106.5t36 129.5q0 123 -85 203t-216 80q-159 0 -259 -86.5
t-100 -218.5h-176q0 199 152 335t385 136q205 0 340 -126t135 -329z" />
    <glyph glyph-name="three" unicode="3" horiz-adv-x="1355" 
d="M975 758q107 -49 172 -136.5t65 -211.5q0 -86 -33.5 -163.5t-95 -137t-156 -94.5t-208.5 -35q-118 0 -219 38t-169.5 102.5t-107.5 151.5t-39 185h176q0 -141 101 -226.5t250 -85.5q151 0 239 78t88 197q0 67 -28 116t-78 77t-109.5 41.5t-130.5 13.5h-112v168h112
q135 0 210 60.5t75 164.5q0 109 -78.5 178.5t-208.5 69.5q-145 0 -237.5 -87.5t-92.5 -224.5h-176q0 98 35.5 185t100 152t162.5 103t216 38q199 0 326 -118.5t127 -287.5q0 -103 -47 -182.5t-129 -128.5z" />
    <glyph glyph-name="four" unicode="4" horiz-adv-x="1394" 
d="M1292 465v-166h-202v-299h-177v299h-770v166l770 989h177v-989h202zM365 465h548v721z" />
    <glyph glyph-name="five" unicode="5" horiz-adv-x="1355" 
d="M733 981q98 0 185.5 -35t152.5 -98.5t103 -159t38 -209.5q0 -135 -65.5 -249t-184 -182t-264.5 -68q-117 0 -215.5 39t-163 104.5t-100 151.5t-35.5 182h176q2 -129 95 -215t241 -86q141 0 241.5 93t100.5 238q0 157 -97.5 246.5t-244.5 89.5q-65 0 -127.5 -19
t-117.5 -65.5t-78 -113.5h-172l127 829h782v-166h-635l-61 -397q140 90 319 90z" />
    <glyph glyph-name="six" unicode="6" horiz-adv-x="1396" 
d="M721 973q143 0 261.5 -69t184.5 -183t66 -246q0 -99 -39 -190t-106.5 -158t-163.5 -107t-203 -40q-145 0 -264 67.5t-185.5 181t-66.5 246.5q0 152 86 277l459 702h202l-325 -489q62 8 94 8zM721 145q143 0 240.5 98t97.5 232t-98 233t-240 99q-145 0 -242.5 -98.5
t-97.5 -233.5t97.5 -232.5t242.5 -97.5z" />
    <glyph glyph-name="seven" unicode="7" horiz-adv-x="1257" 
d="M164 1454h991v-166l-623 -1288h-190l623 1288h-801v166z" />
    <glyph glyph-name="eight" unicode="8" horiz-adv-x="1339" 
d="M956 803q109 -58 174.5 -155t65.5 -220q0 -190 -141.5 -315t-364.5 -125t-364.5 125t-141.5 315q0 123 65 220t173 155q-72 53 -114 125t-42 159q0 109 58.5 196.5t155.5 135t210 47.5t210 -47.5t155.5 -135t58.5 -196.5q0 -168 -158 -284zM690 1300q-97 0 -172.5 -57
t-75.5 -156t75.5 -154.5t172.5 -55.5t172.5 55.5t75.5 154.5t-75.5 156t-172.5 57zM690 154q141 0 235.5 77t94.5 197t-94.5 197t-235.5 77q-142 0 -236 -77t-94 -197t94 -197t236 -77z" />
    <glyph glyph-name="nine" unicode="9" horiz-adv-x="1396" 
d="M1233 979q0 -144 -80 -266h2l-465 -713h-205l326 489q-41 -8 -94 -8q-143 0 -261.5 69t-184.5 183t-66 246q0 99 39 190t106.5 158.5t163.5 107.5t203 40q145 0 264 -68t185.5 -181.5t66.5 -246.5zM381 979q0 -134 97 -232t239 -98q145 0 243.5 98t98.5 232t-98.5 232
t-243.5 98q-142 0 -239 -98t-97 -232z" />
    <glyph glyph-name="colon" unicode=":" horiz-adv-x="446" 
d="M244 770q-41 0 -71 29.5t-30 70.5q0 42 29.5 71.5t71.5 29.5q43 0 71.5 -29t28.5 -72q0 -42 -29 -71t-71 -29zM244 -20q-41 0 -71 29.5t-30 70.5q0 42 29.5 71t71.5 29q43 0 71.5 -28.5t28.5 -71.5q0 -42 -29 -71t-71 -29z" />
    <glyph glyph-name="semicolon" unicode=";" horiz-adv-x="450" 
d="M240 770q-41 0 -71 29.5t-30 70.5q0 42 29.5 71.5t71.5 29.5q43 0 71.5 -29t28.5 -72q0 -42 -29 -71t-71 -29zM150 117h188l-139 -391h-142z" />
    <glyph glyph-name="less" unicode="&#x3c;" horiz-adv-x="1148" 
d="M944 981v-154l-559 -225l559 -223v-156l-747 301v158z" />
    <glyph glyph-name="equal" unicode="=" horiz-adv-x="1159" 
d="M205 815h749v-168h-749v168zM205 522h749v-166h-749v166z" />
    <glyph glyph-name="greater" unicode="&#x3e;" horiz-adv-x="1159" 
d="M205 981l749 -299v-158l-749 -301v156l559 223l-559 225v154z" />
    <glyph glyph-name="question" unicode="?" horiz-adv-x="1126" 
d="M594 1475q102 0 187 -33t138.5 -88t83 -122.5t29.5 -139.5q0 -154 -100.5 -263t-272.5 -143l-6 -287h-157l-9 406h31q160 0 250 69.5t90 192.5q0 105 -71.5 173.5t-190.5 68.5t-203 -80.5t-84 -220.5h-174q0 144 65.5 252.5t168.5 161.5t225 53zM575 180q42 0 71.5 -29
t29.5 -71q0 -41 -30 -70.5t-71 -29.5q-42 0 -71 29t-29 71q0 43 28.5 71.5t71.5 28.5z" />
    <glyph glyph-name="at" unicode="@" horiz-adv-x="2039" 
d="M205 688q0 135 43.5 261t120.5 225.5t178.5 174t223.5 114.5t249 40q174 0 325.5 -60t259 -164.5t169 -253t61.5 -318.5q0 -230 -108 -372t-273 -142q-209 0 -209 286q-36 -73 -117.5 -121.5t-175.5 -48.5q-146 0 -249 111t-103 268t103 268t249 111q93 0 171 -46
t114 -120v160h139v-553q0 -60 8.5 -102t35 -71.5t71.5 -29.5q84 0 144.5 102.5t60.5 280.5q0 142 -44.5 264.5t-128.5 214.5t-213.5 144.5t-289.5 52.5q-180 0 -334 -85.5t-248 -242t-94 -348.5q0 -123 38 -231t101 -184t144 -131.5t168.5 -82t173.5 -26.5q163 0 329 86
l121 -82q-211 -143 -450 -143q-92 0 -184.5 24.5t-177.5 69.5t-158.5 115t-127.5 156t-85 196.5t-31 232.5zM750 688q0 -99 70 -169t169 -70q98 0 168 70.5t70 168.5q0 99 -70.5 169.5t-167.5 70.5q-100 0 -169.5 -70t-69.5 -170z" />
    <glyph glyph-name="A" unicode="A" horiz-adv-x="1533" 
d="M1229 0l-129 358h-625l-129 -358h-182l524 1454h199l524 -1454h-182zM535 524h503l-252 701z" />
    <glyph glyph-name="B" unicode="B" horiz-adv-x="1263" 
d="M885 774q112 -55 178.5 -151.5t66.5 -219.5q0 -193 -133 -298t-370 -105h-455v1454h424q220 0 336.5 -103.5t116.5 -273.5q0 -199 -164 -303zM348 1288v-440h248q139 0 208.5 53.5t69.5 165.5q0 106 -71 163.5t-207 57.5h-248zM627 166q162 0 245.5 63.5t83.5 182.5
q0 123 -83.5 196.5t-235.5 73.5h-289v-516h279z" />
    <glyph glyph-name="C" unicode="C" horiz-adv-x="1482" 
d="M1339 1151q-171 158 -409 158q-155 0 -285.5 -76t-207.5 -210t-77 -296t77 -296t207.5 -210t285.5 -76q242 0 409 158v-178q-169 -145 -430 -145q-201 0 -367.5 99.5t-262 271t-95.5 376.5q0 154 56.5 292t152.5 238t231 159t285 59q260 0 430 -146v-178z" />
    <glyph glyph-name="D" unicode="D" horiz-adv-x="1427" 
d="M625 1454q152 0 282 -56.5t219 -154t139 -231t50 -285.5t-50 -285.5t-139 -231t-219 -154t-282 -56.5h-469v1454h469zM625 166q225 0 369.5 154.5t144.5 406.5t-144.5 406.5t-369.5 154.5h-295v-1122h295z" />
    <glyph glyph-name="E" unicode="E" horiz-adv-x="1048" 
d="M934 1288h-604v-452h467v-166h-467v-504h604v-166h-778v1454h778v-166z" />
    <glyph glyph-name="F" unicode="F" horiz-adv-x="1026" 
d="M924 1288h-605v-457h508v-165h-508v-666h-176v1454h781v-166z" />
    <glyph glyph-name="G" unicode="G" horiz-adv-x="1771" 
d="M862 778h766q0 -237 -91 -418.5t-256 -280.5t-380 -99q-203 0 -368.5 101.5t-257 272t-91.5 373.5t92.5 373.5t262 272.5t381.5 102q354 0 575 -304l-135 -102q-169 240 -440 240q-120 0 -224.5 -46t-178 -124t-115.5 -185.5t-42 -226.5q0 -160 69 -293t193.5 -211
t278.5 -78q216 0 362.5 129.5t180.5 337.5h-582v166z" />
    <glyph glyph-name="H" unicode="H" horiz-adv-x="1388" 
d="M1100 1454h176v-1454h-176v651h-770v-651h-174v1454h174v-637h770v637z" />
    <glyph glyph-name="I" unicode="I" horiz-adv-x="462" 
d="M164 0v1454h176v-1454h-176z" />
    <glyph glyph-name="J" unicode="J" horiz-adv-x="1050" 
d="M340 354q0 -92 53 -150.5t142 -58.5q90 0 143 57t53 199v1053h176l-2 -1053q0 -210 -101 -315.5t-261 -105.5q-70 0 -135.5 23t-121 67.5t-89 118t-33.5 165.5h176z" />
    <glyph glyph-name="K" unicode="K" horiz-adv-x="1341" 
d="M1219 1454l-592 -678l592 -776h-209l-496 645l-174 -199v-446h-176v1454h176v-747l651 747h228z" />
    <glyph glyph-name="L" unicode="L" horiz-adv-x="1097" 
d="M360 166h594v-166h-770v1454h176v-1288z" />
    <glyph glyph-name="M" unicode="M" horiz-adv-x="1792" 
d="M1477 1454h176v-1454h-176v1135l-521 -840h-79l-521 840v-1135h-174v1454h174l562 -901z" />
    <glyph glyph-name="N" unicode="N" horiz-adv-x="1462" 
d="M1163 1454h176v-1454h-176l-823 1157v-1157h-176v1454h176l823 -1157v1157z" />
    <glyph glyph-name="O" unicode="O" horiz-adv-x="1796" 
d="M918 -20q-203 0 -372 100.5t-265.5 272t-96.5 374.5t96.5 375t265.5 272.5t372 100.5q153 0 290 -59.5t234 -160t154 -238.5t57 -290t-57 -290t-154 -238.5t-234 -159.5t-290 -59zM918 145q155 0 284 79t202 212.5t73 290.5t-73 290.5t-202 212.5t-284 79
q-154 0 -283 -79t-202 -212.5t-73 -290.5t73 -290.5t202 -212.5t283 -79z" />
    <glyph glyph-name="P" unicode="P" horiz-adv-x="1263" 
d="M635 1454q107 0 200 -31.5t163 -90t110.5 -150t40.5 -205.5q0 -152 -70 -262t-185 -163.5t-259 -53.5h-305v-498h-174v1454h479zM635 666q153 0 246.5 79t93.5 232t-93.5 232t-246.5 79h-305v-622h305z" />
    <glyph glyph-name="Q" unicode="Q" horiz-adv-x="1792" 
d="M1661 29l-121 -123l-203 205q-187 -131 -419 -131q-203 0 -372 100.5t-265.5 272t-96.5 374.5t96.5 375t265.5 272.5t372 100.5q153 0 290 -59.5t234 -160t154 -238.5t57 -290q0 -142 -49.5 -271t-139.5 -231zM918 145q161 0 299 88l-205 207l121 121l210 -213
q134 163 134 379q0 157 -73 290.5t-202 212.5t-284 79q-154 0 -283 -79t-202 -212.5t-73 -290.5t73 -290.5t202 -212.5t283 -79z" />
    <glyph glyph-name="R" unicode="R" horiz-adv-x="1271" 
d="M958 0l-309 487h-319v-487h-174v1454h518q93 0 178.5 -33.5t151.5 -94.5t105.5 -153t39.5 -202q0 -170 -89 -290.5t-229 -168.5l328 -512h-201zM330 1288v-635h344q125 0 213 87t88 231t-88 230.5t-213 86.5h-344z" />
    <glyph glyph-name="S" unicode="S" horiz-adv-x="1261" 
d="M207 406h176q9 -125 93 -193t198 -68q124 0 197 58.5t73 150.5q0 38 -10 70.5t-33.5 61t-46.5 50.5t-65.5 47.5t-73 42.5t-84.5 44q-86 46 -140 79t-107.5 75t-82 82.5t-46 94t-17.5 117.5q0 156 119.5 256.5t293.5 100.5q176 0 291.5 -115t124.5 -283h-176
q-9 102 -75 167t-165 65q-100 0 -168.5 -55.5t-68.5 -143.5q0 -53 16 -92.5t60 -74t76 -52.5t108 -55q3 -2 5 -2.5t4.5 -2t4.5 -2.5q107 -55 177 -99.5t132 -102.5t91.5 -127t29.5 -152q0 -168 -125.5 -268t-318.5 -100q-197 0 -327.5 121t-139.5 305z" />
    <glyph glyph-name="T" unicode="T" horiz-adv-x="1134" 
d="M1032 1454v-166h-356v-1288h-176v1288h-357v166h889z" />
    <glyph glyph-name="U" unicode="U" horiz-adv-x="1396" 
d="M1284 598q0 -311 -149 -464.5t-416 -153.5q-265 0 -414 154t-149 464v856h174v-856q0 -453 389 -453t389 453v856h176v-856z" />
    <glyph glyph-name="V" unicode="V" horiz-adv-x="1470" 
d="M1186 1454h182l-510 -1454h-205l-510 1454h183l430 -1241z" />
    <glyph glyph-name="W" unicode="W" horiz-adv-x="2342" 
d="M2060 1454h181l-465 -1454h-209l-375 1174l-375 -1174h-209l-465 1454h181l389 -1223l389 1223h180l389 -1223z" />
    <glyph glyph-name="X" unicode="X" horiz-adv-x="1556" 
d="M1454 1454l-549 -727l549 -727h-213l-442 586l-443 -586h-213l549 727l-549 727h213l443 -586l442 586h213z" />
    <glyph glyph-name="Y" unicode="Y" horiz-adv-x="1466" 
d="M1165 1454h199l-522 -848v-606h-176v606l-523 848h199l412 -668z" />
    <glyph glyph-name="Z" unicode="Z" horiz-adv-x="1413" 
d="M1290 1454v-166l-878 -1122h878v-166h-1106v166l879 1122h-879v166h1106z" />
    <glyph glyph-name="bracketleft" unicode="[" horiz-adv-x="749" 
d="M586 1288h-246v-1286h246v-166h-422v1618h422v-166z" />
    <glyph glyph-name="backslash" unicode="\" horiz-adv-x="862" 
d="M102 1454h154l545 -1454h-154z" />
    <glyph glyph-name="bracketright" unicode="]" horiz-adv-x="729" 
d="M565 1454v-1618h-422v166h246v1286h-246v166h422z" />
    <glyph glyph-name="asciicircum" unicode="^" horiz-adv-x="1075" 
d="M1014 635h-158l-299 649l-297 -649h-158l377 819h158z" />
    <glyph glyph-name="underscore" unicode="_" horiz-adv-x="1331" 
d="M61 -47h1250v-139h-1250v139z" />
    <glyph glyph-name="grave" unicode="`" horiz-adv-x="765" 
d="M391 1481l168 -301h-139l-215 301h186z" />
    <glyph glyph-name="a" unicode="a" horiz-adv-x="1445" 
d="M184 520q0 146 68.5 269t189.5 195.5t267 72.5q142 0 254 -71.5t163 -184.5l9 235h168v-1036h-168l-9 236q-51 -113 -163 -184.5t-254 -71.5q-109 0 -207 42.5t-167.5 115t-110 172.5t-40.5 210zM360 520q0 -155 109 -265t266 -110q158 0 265.5 110t107.5 265
q0 153 -107.5 262t-265.5 109q-157 0 -266 -109.5t-109 -261.5z" />
    <glyph glyph-name="b" unicode="b" horiz-adv-x="1427" 
d="M1284 520q0 -148 -68.5 -271.5t-189 -196t-266.5 -72.5q-143 0 -256 72t-162 184l-8 -236h-168v1536h176v-735q49 112 162 184t256 72q146 0 266.5 -72.5t189 -195.5t68.5 -269zM1108 520q0 152 -109.5 261.5t-267.5 109.5q-157 0 -264 -109.5t-107 -261.5
q0 -155 107 -265t264 -110q159 0 268 110t109 265z" />
    <glyph glyph-name="c" unicode="c" horiz-adv-x="1187" 
d="M1044 762q-132 129 -296 129q-99 0 -186 -47.5t-140 -133.5t-53 -190q0 -159 113 -267t266 -108q165 0 296 131v-172q-127 -124 -323 -124q-149 0 -272.5 72.5t-194 196.5t-70.5 271q0 144 70.5 267.5t194.5 196.5t272 73q195 0 323 -125v-170z" />
    <glyph glyph-name="d" unicode="d" horiz-adv-x="1445" 
d="M184 520q0 146 68.5 269t189.5 195.5t267 72.5q142 0 254 -71.5t163 -184.5v735h177v-1536h-168l-9 236q-51 -113 -163 -184.5t-254 -71.5q-109 0 -207 42.5t-167.5 115t-110 172.5t-40.5 210zM360 520q0 -155 109 -265t266 -110q158 0 265.5 110t107.5 265
q0 153 -107.5 262t-265.5 109q-157 0 -266 -109.5t-109 -261.5z" />
    <glyph glyph-name="e" unicode="e" horiz-adv-x="1363" 
d="M1221 508v-45h-861q5 -143 103 -234.5t256 -91.5q118 0 198.5 53.5t118.5 131.5l156 -21q-16 -56 -54 -110.5t-95 -102.5t-142 -78t-182 -30q-234 0 -384.5 154t-150.5 390q0 145 64.5 266.5t184 194t269.5 72.5q154 0 274 -76.5t182.5 -201t62.5 -271.5zM702 899
q-144 0 -240.5 -89.5t-101.5 -219.5h684q-8 127 -101.5 218t-240.5 91z" />
    <glyph glyph-name="f" unicode="f" horiz-adv-x="768" 
d="M541 1309q-78 0 -110 -45.5t-32 -130.5v-97h254v-166h-254v-870h-174v870h-102v166h102v121q0 85 21.5 148.5t59 99.5t82.5 53t97 17q55 0 103.5 -18t75.5 -40v-151q-18 13 -53.5 28t-69.5 15z" />
    <glyph glyph-name="g" unicode="g" horiz-adv-x="1232" 
d="M598 168q229 0 360.5 -89t131.5 -241q0 -103 -63 -179.5t-164.5 -113.5t-225.5 -37t-225.5 37t-164.5 113.5t-63 179.5q0 150 142 238q-95 54 -95 133q0 89 119 147q-78 53 -122 134t-44 178q0 167 122.5 278t305.5 111q110 0 205 -45l270 24v-157l-120 10
q73 -95 73 -221q0 -166 -123 -277.5t-305 -111.5q-84 0 -155 24q-60 -26 -60 -65q0 -70 201 -70zM612 909q-109 0 -185.5 -69t-76.5 -172q0 -102 77 -171t185 -69q109 0 184.5 69t75.5 171q0 103 -75 172t-185 69zM637 -344q130 0 208.5 46.5t78.5 133.5q0 182 -373 182
q-9 0 -59 5q-54 -25 -98 -75.5t-44 -105.5q0 -89 78 -137.5t209 -48.5z" />
    <glyph glyph-name="h" unicode="h" horiz-adv-x="1282" 
d="M766 1057q182 0 283.5 -116.5t101.5 -334.5v-606h-176v532q0 187 -71.5 273t-198.5 86q-88 0 -157 -35.5t-108.5 -91.5t-59.5 -116.5t-20 -119.5v-528h-176v1536h176v-680q167 201 406 201z" />
    <glyph glyph-name="i" unicode="i" horiz-adv-x="456" 
d="M227 1208q-41 0 -70.5 30t-29.5 71q0 42 29 71t71 29q43 0 72 -28.5t29 -71.5q0 -42 -29.5 -71.5t-71.5 -29.5zM315 1036v-1036h-176v1036h176z" />
    <glyph glyph-name="j" unicode="j" horiz-adv-x="505" 
d="M319 1208q-41 0 -70.5 30t-29.5 71q0 42 29 71t71 29q43 0 72 -28.5t29 -71.5q0 -42 -29.5 -71.5t-71.5 -29.5zM408 1036v-1036l-164 -471h-183l172 483v1024h175z" />
    <glyph glyph-name="k" unicode="k" horiz-adv-x="1255" 
d="M1133 1036l-476 -450l476 -586h-220l-381 467l-172 -162v-305h-176v1536h176v-997l527 497h246z" />
    <glyph glyph-name="l" unicode="l" horiz-adv-x="483" 
d="M360 1536v-1536h-176v1536h176z" />
    <glyph glyph-name="m" unicode="m" horiz-adv-x="1921" 
d="M1434 1057q162 0 253 -113t91 -299v-645h-176v592q0 137 -60 218t-170 81q-129 0 -211.5 -114t-91.5 -283v-494h-176v592q0 136 -60.5 217.5t-168.5 81.5q-129 0 -212 -114t-92 -283v-494h-176v1036h166l8 -180q157 201 367 201q119 0 200 -62t117 -172q163 234 392 234z
" />
    <glyph glyph-name="n" unicode="n" horiz-adv-x="1282" 
d="M766 1057q182 0 283.5 -116.5t101.5 -334.5v-606h-176v532q0 187 -71.5 273t-198.5 86q-88 0 -157 -35.5t-108.5 -91.5t-59.5 -116.5t-20 -119.5v-528h-176v1036h166l8 -180q170 201 408 201z" />
    <glyph glyph-name="o" unicode="o" horiz-adv-x="1427" 
d="M735 -20q-154 0 -280.5 72.5t-198.5 196t-72 271.5q0 146 72 269t199 195.5t280 72.5q154 0 280.5 -72.5t197.5 -195.5t71 -269q0 -148 -71 -271.5t-197.5 -196t-280.5 -72.5zM735 145q158 0 265.5 110t107.5 265q0 153 -107.5 262t-265.5 109q-157 0 -266 -109.5
t-109 -261.5q0 -155 109 -265t266 -110z" />
    <glyph glyph-name="p" unicode="p" horiz-adv-x="1445" 
d="M184 -471v1507h166l10 -235q49 113 161 184.5t255 71.5q146 0 267.5 -72.5t190.5 -195.5t69 -269q0 -110 -41 -210t-111 -172.5t-168 -115t-207 -42.5q-143 0 -255 71.5t-161 184.5v-707h-176zM377 520q0 -155 108 -265t265 -110q158 0 267 110t109 265q0 152 -109 261.5
t-267 109.5q-157 0 -265 -109.5t-108 -261.5z" />
    <glyph glyph-name="q" unicode="q" horiz-adv-x="1445" 
d="M1303 -471h-177v707q-51 -114 -163 -185t-254 -71q-109 0 -207 42.5t-167.5 115t-110 172.5t-40.5 210q0 146 68.5 269t189.5 195.5t267 72.5q142 0 254 -71t163 -185l11 235h166v-1507zM1108 520q0 153 -107.5 262t-265.5 109q-157 0 -266 -109.5t-109 -261.5
q0 -155 109 -265t266 -110q158 0 265.5 110t107.5 265z" />
    <glyph glyph-name="r" unicode="r" horiz-adv-x="790" 
d="M598 1057q79 0 131 -45l-31 -154q-47 33 -110 33q-77 0 -129.5 -54.5t-75.5 -136.5t-23 -184v-516h-176v1036h166l8 -131q109 152 240 152z" />
    <glyph glyph-name="s" unicode="s" horiz-adv-x="1153" 
d="M184 287h176q21 -73 88 -115.5t173 -42.5q95 0 154 37t59 98q0 19 -3.5 35.5t-13.5 31t-18.5 25t-29 23t-34.5 20t-45.5 20.5t-50.5 20t-61.5 22.5t-67.5 25.5q-63 21 -110.5 45t-91 58.5t-66.5 82.5t-23 107q0 84 51 148.5t129.5 96.5t169.5 32q162 0 264.5 -82.5
t110.5 -210.5h-174q-9 68 -65.5 106.5t-131.5 38.5q-69 0 -124.5 -35t-55.5 -94q0 -16 3.5 -29t13 -25t18 -21.5t28 -20.5t33.5 -18.5t43.5 -19.5t49 -19.5t59 -22t64.5 -24.5q153 -57 229 -132t76 -188q0 -127 -110.5 -203.5t-283.5 -76.5q-182 0 -298 80t-134 227z" />
    <glyph glyph-name="t" unicode="t" horiz-adv-x="761" 
d="M659 1036v-166h-215v-870h-174v870h-147v166h147v307h174v-307h215z" />
    <glyph glyph-name="u" unicode="u" horiz-adv-x="1282" 
d="M965 1036h174v-1036h-166l-6 182q-172 -202 -410 -202q-182 0 -283.5 116.5t-101.5 333.5v606h176v-532q0 -187 71.5 -273t198.5 -86q88 0 157 35.5t108.5 91.5t59.5 116.5t20 119.5h2v528z" />
    <glyph glyph-name="v" unicode="v" horiz-adv-x="1368" 
d="M1049 1036h196l-440 -1036h-201l-440 1036h196l345 -854z" />
    <glyph glyph-name="w" unicode="w" horiz-adv-x="1966" 
d="M1657 1036h186l-375 -1036h-184l-280 778l-283 -778h-182l-375 1036h186l281 -821l278 821h187l280 -821z" />
    <glyph glyph-name="x" unicode="x" horiz-adv-x="1341" 
d="M164 0l420 518l-420 518h217l311 -397l309 397h218l-420 -518l420 -518h-218l-309 397l-311 -397h-217z" />
    <glyph glyph-name="y" unicode="y" horiz-adv-x="1372" 
d="M164 1036h188l357 -817l352 817h188l-653 -1507h-186l204 473z" />
    <glyph glyph-name="z" unicode="z" horiz-adv-x="1144" 
d="M1022 1036v-166l-602 -704h602v-166h-838v166l604 704h-604v166h838z" />
    <glyph glyph-name="braceleft" unicode="{" horiz-adv-x="833" 
d="M670 1454v-166q-40 0 -66 -1.5t-64 -10.5t-60 -25t-39 -48.5t-17 -78.5q0 -64 29.5 -179t29.5 -173t-27 -92.5t-67 -34.5q40 0 67 -34.5t27 -92.5t-29.5 -173t-29.5 -179q0 -46 17 -78.5t39 -48.5t60 -25t64 -10.5t66 -1.5v-166q-77 0 -135 5.5t-114 22.5t-92 46
t-57.5 77.5t-21.5 114.5q0 86 30.5 212t30.5 173q0 74 -112 74v168q112 0 112 74q0 47 -30.5 173t-30.5 212q0 66 21.5 114.5t57.5 77.5t92 46t114 22.5t135 5.5z" />
    <glyph glyph-name="bar" unicode="|" horiz-adv-x="411" 
d="M147 -164v1782h140v-1782h-140z" />
    <glyph glyph-name="braceright" unicode="}" horiz-adv-x="802" 
d="M131 1454q78 0 136 -5.5t114.5 -22.5t92 -46t57.5 -77.5t22 -114.5q0 -86 -30.5 -212t-30.5 -173q0 -74 112 -74v-168q-112 0 -112 -74q0 -47 30.5 -173t30.5 -212q0 -66 -22 -114.5t-57.5 -77.5t-92 -46t-114.5 -22.5t-136 -5.5v166q40 0 66 1.5t64 10.5t60 25t39 48.5
t17 78.5q0 64 -30 179t-30 173t28.5 92.5t68.5 34.5q-40 0 -68.5 34.5t-28.5 92.5t30 173t30 179q0 46 -17 78.5t-39 48.5t-60 25t-64 10.5t-66 1.5v166z" />
    <glyph glyph-name="asciitilde" unicode="~" horiz-adv-x="1257" 
d="M205 467q7 97 64.5 162t166.5 65q43 0 83 -15t70.5 -37t60 -43.5t64.5 -36.5t70 -15q57 0 88 29.5t31 80.5l150 -26q-8 -98 -66 -163t-168 -65q-43 0 -83 15t-70.5 37t-60 44t-63.5 37t-69 15q-56 0 -87.5 -32t-31.5 -79z" />
    <glyph glyph-name="exclamdown" unicode="&#xa1;" horiz-adv-x="456" 
d="M248 983q42 0 71 -29t29 -71q0 -43 -28.5 -72t-71.5 -29q-42 0 -71.5 29.5t-29.5 71.5q0 41 30 70.5t71 29.5zM168 565h158l10 -1057h-176z" />
    <glyph glyph-name="cent" unicode="&#xa2;" horiz-adv-x="1314" 
d="M1065 762q-126 123 -285 129v-746q160 6 285 131v-172q-113 -110 -285 -122v-129h-59v127q-144 5 -262.5 78.5t-186 195.5t-67.5 266q0 105 40 202.5t108 169.5t164 116.5t204 48.5v127h59v-129q171 -12 285 -123v-170zM389 520q0 -147 97 -251t235 -122v742
q-138 -18 -235 -121.5t-97 -247.5z" />
    <glyph glyph-name="sterling" unicode="&#xa3;" horiz-adv-x="1396" 
d="M938 145q142 0 254 74v-170q-106 -69 -254 -69q-94 0 -241.5 40.5t-235.5 40.5q-142 0 -256 -73v172q110 67 256 67q49 0 92 -6q-4 131 -29.5 213.5t-79.5 151.5h-239v57h188q-89 102 -138.5 201t-49.5 213q0 180 132.5 299t334.5 119q209 0 333.5 -137.5t124.5 -352.5
h-174q0 148 -76 236t-214 88q-123 0 -204 -74t-81 -186q0 -30 4.5 -57.5t17 -57t22 -49.5t33.5 -53.5t36 -49t45.5 -56.5t46.5 -58l16 -25h359v-57h-320q45 -77 66 -173.5t22 -234.5q130 -33 209 -33z" />
    <glyph glyph-name="currency" unicode="&#xa4;" horiz-adv-x="1161" 
d="M850 856q82 -98 79.5 -224.5t-89.5 -219.5l116 -117l-41 -43l-120 119q-93 -72 -210.5 -70t-209.5 80l-127 -129l-43 43l129 127q-78 92 -81 210t69 212l-117 119l43 41l114 -115q95 88 222 89.5t225 -81.5l106 107l41 -41zM737 494q63 62 63 145.5t-63 146.5
q-61 62 -146 62t-147 -62q-62 -63 -62 -146.5t62 -145.5q61 -63 146.5 -63t146.5 63z" />
    <glyph glyph-name="yen" unicode="&#xa5;" horiz-adv-x="1630" 
d="M903 606v-82h379v-57h-379v-86h379v-57h-379v-324h-176v324h-377v57h377v86h-377v57h377v82l-522 848h198l412 -666l412 666h198z" />
    <glyph glyph-name="brokenbar" unicode="&#xa6;" horiz-adv-x="411" 
d="M147 1024v594h140v-594h-140zM147 -164v594h140v-594h-140z" />
    <glyph glyph-name="section" unicode="&#xa7;" horiz-adv-x="1040" 
d="M684 496q83 -40 136.5 -102.5t53.5 -143.5q0 -118 -84 -194t-229 -76q-81 0 -145 26t-103.5 69.5t-61 95t-26.5 108.5h140q9 -75 58.5 -117.5t137.5 -42.5q75 0 124.5 36.5t49.5 100.5q0 36 -20.5 66t-58.5 53t-77 38.5t-90 30.5q-32 9 -44.5 12.5t-44.5 13.5t-47.5 17.5
t-42.5 21t-41.5 26.5t-33 32.5t-28 40t-16.5 47.5t-7 58q0 80 55 145.5t148 99.5q-172 94 -172 248q0 116 86.5 192.5t226.5 76.5q65 0 120 -18t92.5 -47t64.5 -68t41 -80t18 -84h-139q-10 71 -59.5 114t-137.5 43q-71 0 -122.5 -38.5t-51.5 -106.5q0 -67 62.5 -110
t161.5 -64q51 -13 85.5 -23.5t83 -33.5t78 -49.5t51 -70.5t21.5 -98q0 -78 -58.5 -143.5t-154.5 -101.5zM573 895q-103 -2 -176 -53t-73 -121q0 -66 42.5 -102t118.5 -60h11q111 0 185.5 51t74.5 119q0 37 -15 65.5t-44.5 47.5t-57 30.5t-66.5 22.5z" />
    <glyph glyph-name="dieresis" unicode="&#xa8;" horiz-adv-x="948" 
d="M305 1235q-41 0 -70.5 29.5t-29.5 70.5q0 43 29.5 72t70.5 29q43 0 72 -29t29 -72q0 -41 -29 -70.5t-72 -29.5zM643 1235q-41 0 -70.5 29.5t-29.5 70.5q0 43 29.5 72t70.5 29q43 0 71.5 -29t28.5 -72q0 -42 -29 -71t-71 -29z" />
    <glyph glyph-name="copyright" unicode="&#xa9;" horiz-adv-x="1966" 
d="M991 -20q-160 0 -305.5 62.5t-250.5 167.5t-167.5 251t-62.5 307t62.5 307t167.5 251t250.5 167.5t305.5 62.5q161 0 307 -62.5t252 -167.5t169 -251t63 -307t-63 -307t-169 -251t-252 -167.5t-307 -62.5zM991 119q176 0 325.5 87t236.5 236.5t87 325.5t-87 325.5
t-236.5 236.5t-325.5 87t-325.5 -87t-236.5 -236.5t-87 -325.5t87 -325.5t236.5 -236.5t325.5 -87zM1272 1006q-123 108 -268 108q-144 0 -247.5 -99.5t-103.5 -244.5q0 -147 103.5 -247.5t247.5 -100.5q148 0 268 110l55 -126q-151 -132 -342 -132q-125 0 -236 61
t-182 176.5t-71 258.5q0 106 41.5 199t110 156.5t156.5 100t181 36.5q191 0 342 -132z" />
    <glyph glyph-name="guillemotleft" unicode="&#xab;" horiz-adv-x="1134" 
d="M651 840l-252 -351l252 -348h-194l-252 348l252 351h194zM971 840l-252 -351l252 -348h-195l-252 348l252 351h195z" />
    <glyph glyph-name="logicalnot" unicode="&#xac;" horiz-adv-x="1159" 
d="M205 686h747v-352h-166v186h-581v166z" />
    <glyph glyph-name="registered" unicode="&#xae;" horiz-adv-x="1966" 
d="M991 1554q161 0 307 -62.5t252 -167.5t169 -251t63 -307t-63 -307t-169 -251.5t-252 -168t-307 -62.5q-160 0 -305.5 62.5t-250.5 168t-167.5 251.5t-62.5 307t62.5 307t167.5 251t250.5 167.5t305.5 62.5zM991 117q176 0 325.5 86.5t236.5 236t87 326.5q0 176 -87 325.5
t-236.5 236.5t-325.5 87t-325.5 -87t-236.5 -236.5t-87 -325.5q0 -177 87 -326.5t236.5 -236t325.5 -86.5zM1307 909q0 -100 -49.5 -168.5t-133.5 -95.5l183 -280h-166l-160 264h-117v-264h-141v827h291q129 0 211 -75.5t82 -207.5zM1014 768q68 0 110.5 35t42.5 106
q0 73 -42.5 108.5t-110.5 35.5h-150v-285h150z" />
    <glyph glyph-name="macron" unicode="&#xaf;" horiz-adv-x="899" 
d="M205 1417h481v-166h-481v166z" />
    <glyph glyph-name="degree" unicode="&#xb0;" horiz-adv-x="942" 
d="M502 799q-141 0 -239.5 98.5t-98.5 239.5t98.5 239.5t239.5 98.5t239.5 -98.5t98.5 -239.5t-98.5 -239.5t-239.5 -98.5zM502 930q88 0 147.5 59.5t59.5 147.5t-59.5 147t-147.5 59t-147.5 -59t-59.5 -147t59.5 -147.5t147.5 -59.5z" />
    <glyph glyph-name="plusminus" unicode="&#xb1;" horiz-adv-x="1159" 
d="M662 778h290v-166h-290v-288h-166v288h-291v166h291v293h166v-293zM205 104v166h747v-166h-747z" />
    <glyph glyph-name="acute" unicode="&#xb4;" horiz-adv-x="765" 
d="M373 1481h188l-217 -301h-139z" />
    <glyph glyph-name="paragraph" unicode="&#xb6;" horiz-adv-x="1345" 
d="M205 989q0 147 68 254t181 159t257 52h139v-1454h-139v526q-144 0 -257 51.5t-181 158t-68 253.5zM1001 1454h140v-1454h-140v1454z" />
    <glyph glyph-name="periodcentered" unicode="&#xb7;" horiz-adv-x="346" 
d="M162 420q-41 0 -71 29.5t-30 70.5q0 42 29.5 71.5t71.5 29.5q43 0 71.5 -29t28.5 -72q0 -42 -29 -71t-71 -29z" />
    <glyph glyph-name="cedilla" unicode="&#xb8;" horiz-adv-x="782" 
d="M391 -100q85 -2 136 -37t51 -99q0 -35 -16 -62t-38 -44.5t-59.5 -29.5t-66 -18t-72.5 -9t-65 -3.5t-56 -0.5l35 86q108 0 170.5 16.5t62.5 62.5q0 34 -32 48t-91 16l-100 -4l67 178h127z" />
    <glyph glyph-name="guillemotright" unicode="&#xbb;" horiz-adv-x="1011" 
d="M276 840l252 -351l-252 -348h-194l252 348l-252 351h194zM596 840l252 -351l-252 -348h-195l252 348l-252 351h195z" />
    <glyph glyph-name="questiondown" unicode="&#xbf;" horiz-adv-x="995" 
d="M502 782q-42 0 -71.5 29.5t-29.5 71.5q0 41 30 70.5t71 29.5q42 0 71 -29t29 -71q0 -43 -28.5 -72t-71.5 -29zM768 -45h174q0 -144 -65.5 -252.5t-168.5 -161.5t-225 -53q-102 0 -187 33t-138.5 88t-83 122.5t-29.5 139.5q0 153 100 261t271 142l8 291h158l8 -407h-31
q-159 0 -248.5 -69.5t-89.5 -192.5q0 -105 70.5 -173.5t189.5 -68.5t203 80.5t84 220.5z" />
    <glyph glyph-name="Agrave" unicode="&#xc0;" horiz-adv-x="1533" 
d="M858 1671h-139l-217 301h188zM1229 0l-129 358h-625l-129 -358h-182l524 1454h199l524 -1454h-182zM535 524h503l-252 701z" />
    <glyph glyph-name="Aacute" unicode="&#xc1;" horiz-adv-x="1533" 
d="M1073 1972l-217 -301h-139l168 301h188zM1229 0l-129 358h-625l-129 -358h-182l524 1454h199l524 -1454h-182zM535 524h503l-252 701z" />
    <glyph glyph-name="Acircumflex" unicode="&#xc2;" horiz-adv-x="1533" 
d="M788 1876l-139 -205h-162l230 301h141l229 -301h-161zM1229 0l-129 358h-625l-129 -358h-182l524 1454h199l524 -1454h-182zM535 524h503l-252 701z" />
    <glyph glyph-name="Atilde" unicode="&#xc3;" horiz-adv-x="1533" 
d="M631 1821q-56 0 -87.5 -32t-31.5 -79l-150 27q7 97 64.5 162t167.5 65q43 0 83 -15t70.5 -37t60 -43.5t64.5 -36.5t70 -15q57 0 88 29.5t31 80.5l149 -26q-8 -98 -65.5 -163t-167.5 -65q-43 0 -83 15t-70.5 37t-60 44t-63.5 37t-69 15zM1229 0l-129 358h-625l-129 -358
h-182l524 1454h199l524 -1454h-182zM535 524h503l-252 701z" />
    <glyph glyph-name="Adieresis" unicode="&#xc4;" horiz-adv-x="1533" 
d="M618 1726q-41 0 -70.5 30t-29.5 71q0 42 29 71t71 29q43 0 72 -28.5t29 -71.5q0 -42 -29.5 -71.5t-71.5 -29.5zM956 1726q-41 0 -70.5 30t-29.5 71q0 42 29 71t71 29q43 0 72 -28.5t29 -71.5q0 -42 -29.5 -71.5t-71.5 -29.5zM1229 0l-129 358h-625l-129 -358h-182
l524 1454h199l524 -1454h-182zM535 524h503l-252 701z" />
    <glyph glyph-name="Aring" unicode="&#xc5;" horiz-adv-x="1533" 
d="M786 1681q-64 0 -109.5 45.5t-45.5 110.5t45.5 110.5t109.5 45.5t110 -45.5t46 -110.5t-46 -110.5t-110 -45.5zM786 1907q-29 0 -49 -20.5t-20 -49.5t20 -49.5t49 -20.5t49.5 20.5t20.5 49.5t-20.5 49.5t-49.5 20.5zM1229 0l-129 358h-625l-129 -358h-182l524 1454h199
l524 -1454h-182zM535 524h503l-252 701z" />
    <glyph glyph-name="AE" unicode="&#xc6;" horiz-adv-x="2007" 
d="M1917 1288h-604v-452h467v-166h-467v-504h604v-166h-780v362h-586l-197 -362h-190l784 1454h969v-166zM1137 1288h-86l-410 -758h496v758z" />
    <glyph glyph-name="Ccedilla" unicode="&#xc7;" horiz-adv-x="1482" 
d="M930 1309q-155 0 -285.5 -76t-207.5 -210t-77 -296t77 -296t207.5 -210t285.5 -76q242 0 409 158v-178q-150 -130 -381 -143l-43 -82q85 -2 137 -37t52 -99q0 -35 -16 -62t-38 -44.5t-59.5 -29.5t-66 -18t-72.5 -9t-65 -3.5t-56 -0.5l33 86q110 0 172.5 16.5t62.5 62.5
q0 64 -122 64l-101 -4l62 162q-184 18 -334 120.5t-235 266t-85 356.5q0 154 56.5 292t152.5 238t231 159t285 59q260 0 430 -146v-178q-171 158 -409 158z" />
    <glyph glyph-name="Egrave" unicode="&#xc8;" horiz-adv-x="1048" 
d="M616 1671h-139l-217 301h189zM934 1288h-604v-452h467v-166h-467v-504h604v-166h-778v1454h778v-166z" />
    <glyph glyph-name="Eacute" unicode="&#xc9;" horiz-adv-x="1048" 
d="M831 1972l-217 -301h-139l168 301h188zM934 1288h-604v-452h467v-166h-467v-504h604v-166h-778v1454h778v-166z" />
    <glyph glyph-name="Ecircumflex" unicode="&#xca;" horiz-adv-x="1048" 
d="M547 1876l-139 -205h-162l229 301h141l230 -301h-162zM934 1288h-604v-452h467v-166h-467v-504h604v-166h-778v1454h778v-166z" />
    <glyph glyph-name="Edieresis" unicode="&#xcb;" horiz-adv-x="1048" 
d="M377 1726q-41 0 -71 30t-30 71q0 42 29.5 71t71.5 29q43 0 71.5 -28.5t28.5 -71.5q0 -42 -29 -71.5t-71 -29.5zM715 1726q-41 0 -71 30t-30 71q0 42 29.5 71t71.5 29q43 0 71.5 -28.5t28.5 -71.5q0 -42 -29 -71.5t-71 -29.5zM934 1288h-604v-452h467v-166h-467v-504h604
v-166h-778v1454h778v-166z" />
    <glyph glyph-name="Igrave" unicode="&#xcc;" horiz-adv-x="462" 
d="M156 1972l168 -301h-140l-217 301h189zM164 0v1454h176v-1454h-176z" />
    <glyph glyph-name="Iacute" unicode="&#xcd;" horiz-adv-x="462" 
d="M352 1972h189l-217 -301h-140zM164 0v1454h176v-1454h-176z" />
    <glyph glyph-name="Icircumflex" unicode="&#xce;" horiz-adv-x="462" 
d="M326 1972l229 -301h-162l-137 205l-139 -205h-162l229 301h142zM164 0v1454h176v-1454h-176z" />
    <glyph glyph-name="Idieresis" unicode="&#xcf;" horiz-adv-x="462" 
d="M84 1726q-41 0 -70.5 30t-29.5 71q0 42 29 71t71 29q43 0 71.5 -28.5t28.5 -71.5q0 -42 -29 -71.5t-71 -29.5zM422 1726q-41 0 -70.5 30t-29.5 71q0 42 29 71t71 29q43 0 71.5 -28.5t28.5 -71.5q0 -42 -29 -71.5t-71 -29.5zM164 0v1454h176v-1454h-176z" />
    <glyph glyph-name="Eth" unicode="&#xd0;" horiz-adv-x="1427" 
d="M625 1454q152 0 282 -56.5t219 -154t139 -231t50 -285.5t-50 -285.5t-139 -231t-219 -154t-282 -56.5h-469v643h-240v166h240v645h469zM625 166q225 0 369.5 154.5t144.5 406.5t-144.5 406.5t-369.5 154.5h-295v-479h334v-166h-334v-477h295z" />
    <glyph glyph-name="Ntilde" unicode="&#xd1;" horiz-adv-x="1462" 
d="M606 1821q-56 0 -87.5 -32t-31.5 -79l-149 27q7 97 64.5 162t166.5 65q43 0 83 -15t71 -37t60.5 -43.5t64.5 -36.5t70 -15q57 0 87.5 29.5t30.5 80.5l150 -26q-8 -98 -66 -163t-168 -65q-43 0 -83 15t-70.5 37t-60 44t-63.5 37t-69 15zM1163 1454h176v-1454h-176
l-823 1157v-1157h-176v1454h176l823 -1157v1157z" />
    <glyph glyph-name="Ograve" unicode="&#xd2;" horiz-adv-x="1796" 
d="M821 1972l168 -301h-139l-217 301h188zM918 -20q-203 0 -372 100.5t-265.5 272t-96.5 374.5t96.5 375t265.5 272.5t372 100.5q153 0 290 -59.5t234 -160t154 -238.5t57 -290t-57 -290t-154 -238.5t-234 -159.5t-290 -59zM918 145q155 0 284 79t202 212.5t73 290.5
t-73 290.5t-202 212.5t-284 79q-154 0 -283 -79t-202 -212.5t-73 -290.5t73 -290.5t202 -212.5t283 -79z" />
    <glyph glyph-name="Oacute" unicode="&#xd3;" horiz-adv-x="1796" 
d="M1016 1972h188l-217 -301h-139zM918 -20q-203 0 -372 100.5t-265.5 272t-96.5 374.5t96.5 375t265.5 272.5t372 100.5q153 0 290 -59.5t234 -160t154 -238.5t57 -290t-57 -290t-154 -238.5t-234 -159.5t-290 -59zM918 145q155 0 284 79t202 212.5t73 290.5t-73 290.5
t-202 212.5t-284 79q-154 0 -283 -79t-202 -212.5t-73 -290.5t73 -290.5t202 -212.5t283 -79z" />
    <glyph glyph-name="Ocircumflex" unicode="&#xd4;" horiz-adv-x="1796" 
d="M920 1876l-140 -205h-162l230 301h141l230 -301h-162zM918 1475q153 0 290 -59.5t234 -160t154 -238.5t57 -290t-57 -290t-154 -238.5t-234 -159.5t-290 -59q-203 0 -372 100.5t-265.5 272t-96.5 374.5t96.5 375t265.5 272.5t372 100.5zM918 145q155 0 284 79t202 212.5
t73 290.5t-73 290.5t-202 212.5t-284 79q-154 0 -283 -79t-202 -212.5t-73 -290.5t73 -290.5t202 -212.5t283 -79z" />
    <glyph glyph-name="Otilde" unicode="&#xd5;" horiz-adv-x="1796" 
d="M494 1737q7 97 64.5 162t166.5 65q43 0 83 -15t70.5 -37t60 -43.5t64.5 -36.5t70 -15q57 0 88 29.5t31 80.5l149 -26q-8 -98 -65.5 -163t-167.5 -65q-43 0 -83 15t-70.5 37t-60 44t-63.5 37t-69 15q-56 0 -87.5 -32t-31.5 -79zM918 -20q-203 0 -372 100.5t-265.5 272
t-96.5 374.5t96.5 375t265.5 272.5t372 100.5q153 0 290 -59.5t234 -160t154 -238.5t57 -290t-57 -290t-154 -238.5t-234 -159.5t-290 -59zM918 145q155 0 284 79t202 212.5t73 290.5t-73 290.5t-202 212.5t-284 79q-154 0 -283 -79t-202 -212.5t-73 -290.5t73 -290.5
t202 -212.5t283 -79z" />
    <glyph glyph-name="Odieresis" unicode="&#xd6;" horiz-adv-x="1796" 
d="M750 1726q-41 0 -71 30t-30 71q0 42 29.5 71t71.5 29q43 0 71.5 -28.5t28.5 -71.5q0 -42 -29 -71.5t-71 -29.5zM1087 1726q-41 0 -70.5 30t-29.5 71q0 42 29 71t71 29q43 0 72 -28.5t29 -71.5q0 -42 -29.5 -71.5t-71.5 -29.5zM918 -20q-203 0 -372 100.5t-265.5 272
t-96.5 374.5t96.5 375t265.5 272.5t372 100.5q153 0 290 -59.5t234 -160t154 -238.5t57 -290t-57 -290t-154 -238.5t-234 -159.5t-290 -59zM918 145q155 0 284 79t202 212.5t73 290.5t-73 290.5t-202 212.5t-284 79q-154 0 -283 -79t-202 -212.5t-73 -290.5t73 -290.5
t202 -212.5t283 -79z" />
    <glyph glyph-name="multiply" unicode="&#xd7;" horiz-adv-x="1030" 
d="M838 791l-205 -205l205 -207l-119 -117l-205 205l-205 -205l-116 119l204 205l-207 205l119 116l205 -205l207 207z" />
    <glyph glyph-name="Oslash" unicode="&#xd8;" horiz-adv-x="1796" 
d="M1386 1305q125 -104 196 -255.5t71 -322.5q0 -152 -57 -290t-154 -238.5t-234 -159.5t-290 -59q-241 0 -429 139l-151 -201h-74l178 236q-122 106 -190 255t-68 318q0 203 96.5 375t265.5 272.5t372 100.5q231 0 421 -134l148 195h74zM360 727q0 -128 49 -240.5
t138 -195.5l690 915q-147 103 -319 103q-154 0 -283 -79t-202 -212.5t-73 -290.5zM918 145q155 0 284 79t202 212.5t73 290.5q0 130 -51.5 244.5t-143.5 197.5l-690 -915q144 -109 326 -109z" />
    <glyph glyph-name="Ugrave" unicode="&#xd9;" horiz-adv-x="1396" 
d="M623 1972l168 -301h-140l-217 301h189zM1284 598q0 -311 -149 -464.5t-416 -153.5q-265 0 -414 154t-149 464v856h174v-856q0 -453 389 -453t389 453v856h176v-856z" />
    <glyph glyph-name="Uacute" unicode="&#xda;" horiz-adv-x="1396" 
d="M817 1972h189l-218 -301h-139zM1284 598q0 -311 -149 -464.5t-416 -153.5q-265 0 -414 154t-149 464v856h174v-856q0 -453 389 -453t389 453v856h176v-856z" />
    <glyph glyph-name="Ucircumflex" unicode="&#xdb;" horiz-adv-x="1396" 
d="M721 1876l-139 -205h-162l229 301h142l229 -301h-162zM1108 1454h176v-856q0 -311 -149 -464.5t-416 -153.5q-265 0 -414 154t-149 464v856h174v-856q0 -453 389 -453t389 453v856z" />
    <glyph glyph-name="Udieresis" unicode="&#xdc;" horiz-adv-x="1396" 
d="M551 1726q-41 0 -70.5 30t-29.5 71q0 42 29 71t71 29q43 0 71.5 -28.5t28.5 -71.5q0 -42 -29 -71.5t-71 -29.5zM889 1726q-41 0 -71 30t-30 71q0 42 29.5 71t71.5 29q43 0 71.5 -28.5t28.5 -71.5q0 -42 -29 -71.5t-71 -29.5zM1284 598q0 -311 -149 -464.5t-416 -153.5
q-265 0 -414 154t-149 464v856h174v-856q0 -453 389 -453t389 453v856h176v-856z" />
    <glyph glyph-name="Yacute" unicode="&#xdd;" horiz-adv-x="1466" 
d="M1040 1972l-217 -301h-139l168 301h188zM1165 1454h199l-522 -848v-606h-176v606l-523 848h199l412 -668z" />
    <glyph glyph-name="Thorn" unicode="&#xde;" horiz-adv-x="1185" 
d="M596 1217q107 0 200 -31.5t163 -90.5t110.5 -151.5t40.5 -206.5t-40.5 -205.5t-110.5 -150t-163 -90t-200 -31.5h-277v-260h-176v1491h176v-274h277zM596 426q154 0 247 79t93 232t-93 232.5t-247 79.5h-277v-623h277z" />
    <glyph glyph-name="germandbls" unicode="&#xdf;" horiz-adv-x="1343" 
d="M924 819q124 -57 200 -161t76 -244q0 -84 -25.5 -158.5t-75 -133.5t-130 -93.5t-183.5 -34.5q-157 0 -282 88v172q127 -94 256 -94q131 0 197.5 73t66.5 189q0 139 -96.5 220t-243.5 81h-51v149h51q49 0 85 19t55 49.5t27.5 62.5t8.5 64q0 99 -62 170.5t-173 71.5
q-123 0 -194 -89.5t-71 -240.5v-979h-176v979q0 101 26 188.5t78.5 157.5t139.5 110t201 40q98 0 178.5 -36t128.5 -93t74 -123.5t26 -132.5q0 -70 -28.5 -143.5t-83.5 -127.5z" />
    <glyph glyph-name="agrave" unicode="&#xe0;" horiz-adv-x="1445" 
d="M643 1554l168 -301h-139l-217 301h188zM184 520q0 146 68.5 269t189.5 195.5t267 72.5q142 0 254 -71.5t163 -184.5l9 235h168v-1036h-168l-9 236q-51 -113 -163 -184.5t-254 -71.5q-109 0 -207 42.5t-167.5 115t-110 172.5t-40.5 210zM360 520q0 -155 109 -265t266 -110
q158 0 265.5 110t107.5 265q0 153 -107.5 262t-265.5 109q-157 0 -266 -109.5t-109 -261.5z" />
    <glyph glyph-name="aacute" unicode="&#xe1;" horiz-adv-x="1445" 
d="M840 1554h188l-217 -301h-139zM184 520q0 146 68.5 269t189.5 195.5t267 72.5q142 0 254 -71.5t163 -184.5l9 235h168v-1036h-168l-9 236q-51 -113 -163 -184.5t-254 -71.5q-109 0 -207 42.5t-167.5 115t-110 172.5t-40.5 210zM360 520q0 -155 109 -265t266 -110
q158 0 265.5 110t107.5 265q0 153 -107.5 262t-265.5 109q-157 0 -266 -109.5t-109 -261.5z" />
    <glyph glyph-name="acircumflex" unicode="&#xe2;" horiz-adv-x="1445" 
d="M743 1458l-139 -205h-162l230 301h141l229 -301h-161zM1135 1036h168v-1036h-168l-9 236q-51 -113 -163 -184.5t-254 -71.5q-109 0 -207 42.5t-167.5 115t-110 172.5t-40.5 210q0 146 68.5 269t189.5 195.5t267 72.5q142 0 254 -71.5t163 -184.5zM735 145
q158 0 265.5 110t107.5 265q0 153 -107.5 262t-265.5 109q-157 0 -266 -109.5t-109 -261.5q0 -155 109 -265t266 -110z" />
    <glyph glyph-name="atilde" unicode="&#xe3;" horiz-adv-x="1445" 
d="M317 1319q7 97 64.5 162t167.5 65q43 0 83 -15t70.5 -37t60 -43.5t64.5 -36.5t70 -15q57 0 88 29.5t31 80.5l149 -26q-8 -98 -65.5 -163t-167.5 -65q-43 0 -83 15t-70.5 37t-60 44t-63.5 37t-69 15q-56 0 -87.5 -32t-31.5 -79zM184 520q0 146 68.5 269t189.5 195.5
t267 72.5q142 0 254 -71.5t163 -184.5l9 235h168v-1036h-168l-9 236q-51 -113 -163 -184.5t-254 -71.5q-109 0 -207 42.5t-167.5 115t-110 172.5t-40.5 210zM360 520q0 -155 109 -265t266 -110q158 0 265.5 110t107.5 265q0 153 -107.5 262t-265.5 109q-157 0 -266 -109.5
t-109 -261.5z" />
    <glyph glyph-name="adieresis" unicode="&#xe4;" horiz-adv-x="1445" 
d="M573 1309q-41 0 -70.5 29.5t-29.5 70.5q0 42 29 71t71 29q43 0 72 -28.5t29 -71.5q0 -41 -29 -70.5t-72 -29.5zM911 1309q-41 0 -70.5 29.5t-29.5 70.5q0 42 29 71t71 29q43 0 72 -28.5t29 -71.5q0 -41 -29 -70.5t-72 -29.5zM184 520q0 146 68.5 269t189.5 195.5
t267 72.5q142 0 254 -71.5t163 -184.5l9 235h168v-1036h-168l-9 236q-51 -113 -163 -184.5t-254 -71.5q-109 0 -207 42.5t-167.5 115t-110 172.5t-40.5 210zM360 520q0 -155 109 -265t266 -110q158 0 265.5 110t107.5 265q0 153 -107.5 262t-265.5 109q-157 0 -266 -109.5
t-109 -261.5z" />
    <glyph glyph-name="aring" unicode="&#xe5;" horiz-adv-x="1445" 
d="M741 1264q-65 0 -110 45t-45 110t45.5 110.5t109.5 45.5q65 0 110.5 -45.5t45.5 -110.5q0 -64 -45.5 -109.5t-110.5 -45.5zM741 1350q29 0 49.5 20t20.5 49t-20.5 49.5t-49.5 20.5t-49 -20.5t-20 -49.5t20 -49t49 -20zM184 520q0 146 68.5 269t189.5 195.5t267 72.5
q142 0 254 -71.5t163 -184.5l9 235h168v-1036h-168l-9 236q-51 -113 -163 -184.5t-254 -71.5q-109 0 -207 42.5t-167.5 115t-110 172.5t-40.5 210zM360 520q0 -155 109 -265t266 -110q158 0 265.5 110t107.5 265q0 153 -107.5 262t-265.5 109q-157 0 -266 -109.5
t-109 -261.5z" />
    <glyph glyph-name="ae" unicode="&#xe6;" horiz-adv-x="2394" 
d="M2251 508v-45h-862q5 -142 104 -234t256 -92q117 0 198 53.5t119 131.5l154 -21q-15 -55 -53 -110t-95 -103t-141.5 -78t-181.5 -30q-144 0 -260 62t-186 171v-213h-168l-9 236q-51 -113 -163 -184.5t-254 -71.5q-109 0 -207 42.5t-167.5 115t-110 172.5t-40.5 210
q0 146 68.5 269t189.5 195.5t267 72.5q142 0 254 -71.5t163 -184.5l9 235h168v-209q68 106 179.5 168t250.5 62q154 0 273.5 -76.5t182 -201t62.5 -271.5zM1733 899q-144 0 -241 -89.5t-103 -219.5h686q-9 127 -103 218t-239 91zM735 145q158 0 265.5 110t107.5 265
q0 153 -107.5 262t-265.5 109q-157 0 -266 -109.5t-109 -261.5q0 -155 109 -265t266 -110z" />
    <glyph glyph-name="ccedilla" unicode="&#xe7;" horiz-adv-x="1187" 
d="M748 891q-99 0 -186 -47.5t-140 -133.5t-53 -190q0 -159 113 -267t266 -108q165 0 296 131v-172q-115 -115 -299 -124l-43 -80q85 -2 137 -37t52 -99q0 -35 -16 -62t-38 -44.5t-59.5 -29.5t-66 -18t-72.5 -9t-65 -3.5t-56 -0.5l33 86q110 0 172.5 16.5t62.5 62.5
q0 64 -122 64l-101 -4l64 166q-192 34 -317.5 184t-125.5 348q0 144 70.5 267.5t194.5 196.5t272 73q195 0 323 -125v-170q-132 129 -296 129z" />
    <glyph glyph-name="egrave" unicode="&#xe8;" horiz-adv-x="1363" 
d="M772 1253h-139l-217 301h188zM1221 508v-45h-861q5 -143 103 -234.5t256 -91.5q118 0 198.5 53.5t118.5 131.5l156 -21q-16 -56 -54 -110.5t-95 -102.5t-142 -78t-182 -30q-234 0 -384.5 154t-150.5 390q0 145 64.5 266.5t184 194t269.5 72.5q154 0 274 -76.5t182.5 -201
t62.5 -271.5zM702 899q-144 0 -240.5 -89.5t-101.5 -219.5h684q-8 127 -101.5 218t-240.5 91z" />
    <glyph glyph-name="eacute" unicode="&#xe9;" horiz-adv-x="1363" 
d="M989 1554l-217 -301h-139l168 301h188zM1221 508v-45h-861q5 -143 103 -234.5t256 -91.5q118 0 198.5 53.5t118.5 131.5l156 -21q-16 -56 -54 -110.5t-95 -102.5t-142 -78t-182 -30q-234 0 -384.5 154t-150.5 390q0 145 64.5 266.5t184 194t269.5 72.5q154 0 274 -76.5
t182.5 -201t62.5 -271.5zM702 899q-144 0 -240.5 -89.5t-101.5 -219.5h684q-8 127 -101.5 218t-240.5 91z" />
    <glyph glyph-name="ecircumflex" unicode="&#xea;" horiz-adv-x="1363" 
d="M705 1458l-140 -205h-162l230 301h141l230 -301h-162zM1221 508v-45h-861q5 -143 103 -234.5t256 -91.5q118 0 198.5 53.5t118.5 131.5l156 -21q-16 -56 -54 -110.5t-95 -102.5t-142 -78t-182 -30q-234 0 -384.5 154t-150.5 390q0 145 64.5 266.5t184 194t269.5 72.5
q154 0 274 -76.5t182.5 -201t62.5 -271.5zM702 899q-144 0 -240.5 -89.5t-101.5 -219.5h684q-8 127 -101.5 218t-240.5 91z" />
    <glyph glyph-name="edieresis" unicode="&#xeb;" horiz-adv-x="1363" 
d="M535 1309q-41 0 -71 29.5t-30 70.5q0 42 29.5 71t71.5 29q43 0 71.5 -28.5t28.5 -71.5q0 -42 -29 -71t-71 -29zM872 1309q-41 0 -70.5 29.5t-29.5 70.5q0 42 29 71t71 29q43 0 72 -28.5t29 -71.5q0 -41 -29.5 -70.5t-71.5 -29.5zM1221 508v-45h-861q5 -143 103 -234.5
t256 -91.5q118 0 198.5 53.5t118.5 131.5l156 -21q-16 -56 -54 -110.5t-95 -102.5t-142 -78t-182 -30q-234 0 -384.5 154t-150.5 390q0 145 64.5 266.5t184 194t269.5 72.5q154 0 274 -76.5t182.5 -201t62.5 -271.5zM702 899q-144 0 -240.5 -89.5t-101.5 -219.5h684
q-8 127 -101.5 218t-240.5 91z" />
    <glyph glyph-name="igrave" unicode="&#xec;" horiz-adv-x="421" 
d="M115 1554l168 -301h-140l-217 301h189zM299 1036v-1036h-176v1036h176z" />
    <glyph glyph-name="iacute" unicode="&#xed;" horiz-adv-x="421" 
d="M309 1554h189l-217 -301h-140zM299 1036v-1036h-176v1036h176z" />
    <glyph glyph-name="icircumflex" unicode="&#xee;" horiz-adv-x="421" 
d="M285 1554l229 -301h-162l-137 205l-139 -205h-162l229 301h142zM123 0v1036h176v-1036h-176z" />
    <glyph glyph-name="idieresis" unicode="&#xef;" horiz-adv-x="421" 
d="M43 1210q-42 0 -71 29.5t-29 71.5q0 43 28.5 71.5t71.5 28.5t71.5 -28.5t28.5 -71.5q0 -42 -29 -71.5t-71 -29.5zM381 1210q-41 0 -70.5 30t-29.5 71q0 42 29 71t71 29q43 0 71.5 -28.5t28.5 -71.5q0 -42 -29 -71.5t-71 -29.5zM299 1036v-1036h-176v1036h176z" />
    <glyph glyph-name="eth" unicode="&#xf0;" horiz-adv-x="1339" 
d="M805 1284q184 -125 287.5 -325t103.5 -465q0 -221 -145.5 -367.5t-362.5 -146.5q-212 0 -358 142.5t-146 344.5q0 132 66 243.5t182 177.5t256 66q128 0 238 -55q-82 177 -262 279l-244 -185v74l184 139q-124 57 -287 82v166q242 -21 435 -137l217 164v-74zM1020 467
q0 17 -4 45l-15 2q0 43 -2 61q-35 94 -119 153.5t-192 59.5q-137 0 -232.5 -94t-95.5 -227t95.5 -227.5t232.5 -94.5q139 0 235.5 94.5t96.5 227.5z" />
    <glyph glyph-name="ntilde" unicode="&#xf1;" horiz-adv-x="1282" 
d="M508 1403q-56 0 -87.5 -32t-31.5 -79l-149 27q7 97 64.5 162t166.5 65q43 0 83 -15t70.5 -37t60 -43.5t64.5 -36.5t70 -15q57 0 88 29.5t31 80.5l149 -26q-8 -98 -65.5 -163t-167.5 -65q-43 0 -83 15t-70.5 37t-60 44t-63.5 37t-69 15zM766 1057q182 0 283.5 -116.5
t101.5 -334.5v-606h-176v532q0 187 -71.5 273t-198.5 86q-88 0 -157 -35.5t-108.5 -91.5t-59.5 -116.5t-20 -119.5v-528h-176v1036h166l8 -180q170 201 408 201z" />
    <glyph glyph-name="ograve" unicode="&#xf2;" horiz-adv-x="1427" 
d="M639 1554l168 -301h-139l-217 301h188zM735 -20q-154 0 -280.5 72.5t-198.5 196t-72 271.5q0 146 72 269t199 195.5t280 72.5q154 0 280.5 -72.5t197.5 -195.5t71 -269q0 -148 -71 -271.5t-197.5 -196t-280.5 -72.5zM735 145q158 0 265.5 110t107.5 265q0 153 -107.5 262
t-265.5 109q-157 0 -266 -109.5t-109 -261.5q0 -155 109 -265t266 -110z" />
    <glyph glyph-name="oacute" unicode="&#xf3;" horiz-adv-x="1427" 
d="M836 1554h188l-217 -301h-139zM735 -20q-154 0 -280.5 72.5t-198.5 196t-72 271.5q0 146 72 269t199 195.5t280 72.5q154 0 280.5 -72.5t197.5 -195.5t71 -269q0 -148 -71 -271.5t-197.5 -196t-280.5 -72.5zM735 145q158 0 265.5 110t107.5 265q0 153 -107.5 262
t-265.5 109q-157 0 -266 -109.5t-109 -261.5q0 -155 109 -265t266 -110z" />
    <glyph glyph-name="ocircumflex" unicode="&#xf4;" horiz-adv-x="1427" 
d="M739 1458l-139 -205h-162l230 301h141l229 -301h-161zM735 1057q154 0 280.5 -72.5t197.5 -195.5t71 -269q0 -148 -71 -271.5t-197.5 -196t-280.5 -72.5t-280.5 72.5t-198.5 196t-72 271.5q0 146 72 269t199 195.5t280 72.5zM735 145q158 0 265.5 110t107.5 265
q0 153 -107.5 262t-265.5 109q-157 0 -266 -109.5t-109 -261.5q0 -155 109 -265t266 -110z" />
    <glyph glyph-name="otilde" unicode="&#xf5;" horiz-adv-x="1427" 
d="M313 1319q7 97 64.5 162t167.5 65q43 0 83 -15t70.5 -37t60 -43.5t64.5 -36.5t70 -15q57 0 88 29.5t31 80.5l149 -26q-8 -98 -65.5 -163t-167.5 -65q-43 0 -83 15t-70.5 37t-60 44t-63.5 37t-69 15q-56 0 -87.5 -32t-31.5 -79zM735 -20q-154 0 -280.5 72.5t-198.5 196
t-72 271.5q0 146 72 269t199 195.5t280 72.5q154 0 280.5 -72.5t197.5 -195.5t71 -269q0 -148 -71 -271.5t-197.5 -196t-280.5 -72.5zM735 145q158 0 265.5 110t107.5 265q0 153 -107.5 262t-265.5 109q-157 0 -266 -109.5t-109 -261.5q0 -155 109 -265t266 -110z" />
    <glyph glyph-name="odieresis" unicode="&#xf6;" horiz-adv-x="1427" 
d="M569 1309q-41 0 -70.5 29.5t-29.5 70.5q0 42 29 71t71 29q43 0 72 -28.5t29 -71.5q0 -41 -29 -70.5t-72 -29.5zM907 1309q-41 0 -70.5 29.5t-29.5 70.5q0 42 29 71t71 29q43 0 72 -28.5t29 -71.5q0 -41 -29 -70.5t-72 -29.5zM735 -20q-154 0 -280.5 72.5t-198.5 196
t-72 271.5q0 146 72 269t199 195.5t280 72.5q154 0 280.5 -72.5t197.5 -195.5t71 -269q0 -148 -71 -271.5t-197.5 -196t-280.5 -72.5zM735 145q158 0 265.5 110t107.5 265q0 153 -107.5 262t-265.5 109q-157 0 -266 -109.5t-109 -261.5q0 -155 109 -265t266 -110z" />
    <glyph glyph-name="divide" unicode="&#xf7;" horiz-adv-x="1148" 
d="M598 770q-42 0 -71 29t-29 71q0 43 29 73t71 30q41 0 70.5 -30t29.5 -73q0 -41 -29.5 -70.5t-70.5 -29.5zM223 668h748v-166h-748v166zM598 182q-43 0 -71.5 29t-28.5 72t28.5 71.5t71.5 28.5q42 0 71 -29t29 -71q0 -43 -29 -72t-71 -29z" />
    <glyph glyph-name="oslash" unicode="&#xf8;" horiz-adv-x="1425" 
d="M1085 934q93 -74 145 -182.5t52 -231.5q0 -148 -71 -271.5t-197 -196t-279 -72.5q-166 0 -307 88l-78 -105h-74l105 139q-92 75 -144.5 184.5t-52.5 233.5q0 146 71.5 269t198.5 195.5t281 72.5q169 0 303 -88l78 104h74zM358 520q0 -82 34 -155t93 -125l451 594
q-88 57 -201 57q-158 0 -267.5 -109.5t-109.5 -261.5zM735 145q157 0 265 110t108 265q0 81 -33 153.5t-92 125.5l-451 -596q89 -58 203 -58z" />
    <glyph glyph-name="ugrave" unicode="&#xf9;" horiz-adv-x="1282" 
d="M741 1253h-139l-217 301h188zM965 1036h174v-1036h-166l-6 182q-172 -202 -410 -202q-182 0 -283.5 116.5t-101.5 333.5v606h176v-532q0 -187 71.5 -273t198.5 -86q88 0 157 35.5t108.5 91.5t59.5 116.5t20 119.5h2v528z" />
    <glyph glyph-name="uacute" unicode="&#xfa;" horiz-adv-x="1282" 
d="M958 1554l-217 -301h-139l168 301h188zM965 1036h174v-1036h-166l-6 182q-172 -202 -410 -202q-182 0 -283.5 116.5t-101.5 333.5v606h176v-532q0 -187 71.5 -273t198.5 -86q88 0 157 35.5t108.5 91.5t59.5 116.5t20 119.5h2v528z" />
    <glyph glyph-name="ucircumflex" unicode="&#xfb;" horiz-adv-x="1282" 
d="M674 1458l-139 -205h-162l229 301h141l230 -301h-162zM965 1036h174v-1036h-166l-6 182q-172 -202 -410 -202q-182 0 -283.5 116.5t-101.5 333.5v606h176v-532q0 -187 71.5 -273t198.5 -86q88 0 157 35.5t108.5 91.5t59.5 116.5t20 119.5h2v528z" />
    <glyph glyph-name="udieresis" unicode="&#xfc;" horiz-adv-x="1282" 
d="M504 1309q-41 0 -71 29.5t-30 70.5q0 42 29.5 71t71.5 29q43 0 71.5 -28.5t28.5 -71.5q0 -42 -29 -71t-71 -29zM842 1309q-41 0 -71 29.5t-30 70.5q0 42 29.5 71t71.5 29q43 0 71.5 -28.5t28.5 -71.5q0 -42 -29 -71t-71 -29zM965 1036h174v-1036h-166l-6 182
q-172 -202 -410 -202q-182 0 -283.5 116.5t-101.5 333.5v606h176v-532q0 -187 71.5 -273t198.5 -86q88 0 157 35.5t108.5 91.5t59.5 116.5t20 119.5h2v528z" />
    <glyph glyph-name="yacute" unicode="&#xfd;" horiz-adv-x="1372" 
d="M813 1554h188l-217 -301h-139zM164 1036h188l357 -817l352 817h188l-653 -1507h-186l204 473z" />
    <glyph glyph-name="thorn" unicode="&#xfe;" horiz-adv-x="1427" 
d="M184 -471v2007h176v-725q48 110 157.5 178t242.5 68q146 0 266.5 -72.5t189 -195.5t68.5 -269q0 -148 -68.5 -271.5t-189 -196t-266.5 -72.5q-133 0 -243 68t-157 179v-698h-176zM350 520q0 -155 108 -265t265 -110q159 0 268 110t109 265q0 152 -109.5 261.5
t-267.5 109.5q-157 0 -265 -109.5t-108 -261.5z" />
    <glyph glyph-name="ydieresis" unicode="&#xff;" horiz-adv-x="1372" 
d="M547 1309q-41 0 -71 29.5t-30 70.5q0 42 29.5 71t71.5 29q43 0 71.5 -28.5t28.5 -71.5q0 -42 -29 -71t-71 -29zM885 1309q-41 0 -71 29.5t-30 70.5q0 42 29.5 71t71.5 29q43 0 71.5 -28.5t28.5 -71.5q0 -42 -29 -71t-71 -29zM164 1036h188l357 -817l352 817h188
l-653 -1507h-186l204 473z" />
    <glyph glyph-name="Amacron" unicode="&#x100;" horiz-adv-x="1533" 
d="M1026 1909v-166h-483v166h483zM1229 0l-129 358h-625l-129 -358h-182l524 1454h199l524 -1454h-182zM535 524h503l-252 701z" />
    <glyph glyph-name="amacron" unicode="&#x101;" horiz-adv-x="1445" 
d="M498 1491h483v-166h-483v166zM184 520q0 146 68.5 269t189.5 195.5t267 72.5q142 0 254 -71.5t163 -184.5l9 235h168v-1036h-168l-9 236q-51 -113 -163 -184.5t-254 -71.5q-109 0 -207 42.5t-167.5 115t-110 172.5t-40.5 210zM360 520q0 -155 109 -265t266 -110
q158 0 265.5 110t107.5 265q0 153 -107.5 262t-265.5 109q-157 0 -266 -109.5t-109 -261.5z" />
    <glyph glyph-name="Abreve" unicode="&#x102;" horiz-adv-x="1533" 
d="M786 1671q-145 0 -245.5 84t-100.5 217h140q0 -30 11.5 -60.5t34 -58t64.5 -44.5t96 -17t96 17t65 44.5t34.5 58t11.5 60.5h140q0 -133 -101 -217t-246 -84zM1229 0l-129 358h-625l-129 -358h-182l524 1454h199l524 -1454h-182zM535 524h503l-252 701z" />
    <glyph glyph-name="abreve" unicode="&#x103;" horiz-adv-x="1445" 
d="M1087 1554q0 -133 -100.5 -217t-245.5 -84t-245.5 84t-100.5 217h140q0 -30 11.5 -60.5t34 -58t64.5 -44.5t96 -17t96 17t65 44.5t34.5 58t11.5 60.5h139zM184 520q0 146 68.5 269t189.5 195.5t267 72.5q142 0 254 -71.5t163 -184.5l9 235h168v-1036h-168l-9 236
q-51 -113 -163 -184.5t-254 -71.5q-109 0 -207 42.5t-167.5 115t-110 172.5t-40.5 210zM360 520q0 -155 109 -265t266 -110q158 0 265.5 110t107.5 265q0 153 -107.5 262t-265.5 109q-157 0 -266 -109.5t-109 -261.5z" />
    <glyph glyph-name="Aogonek" unicode="&#x104;" horiz-adv-x="1533" 
d="M1386 -190q65 0 160 55v-141q-80 -80 -190 -80q-58 0 -103 32t-64 81.5t-5 115.5t65 127h-20l-129 358h-625l-129 -358h-182l524 1454h199l524 -1454h-22q-44 -44 -60 -89t0 -73t57 -28zM535 524h503l-252 701z" />
    <glyph glyph-name="aogonek" unicode="&#x105;" horiz-adv-x="1445" 
d="M1290 -190q65 0 160 55v-141q-80 -80 -190 -80q-58 0 -103 32t-64 81.5t-5 115.5t65 127h-18l-9 236q-51 -113 -163 -184.5t-254 -71.5q-109 0 -207 42.5t-167.5 115t-110 172.5t-40.5 210q0 146 68.5 269t189.5 195.5t267 72.5q142 0 254 -71.5t163 -184.5l9 235h168
v-1036h-11q-44 -44 -59.5 -89t0.5 -73t57 -28zM735 145q158 0 265.5 110t107.5 265q0 153 -107.5 262t-265.5 109q-157 0 -266 -109.5t-109 -261.5q0 -155 109 -265t266 -110z" />
    <glyph glyph-name="Cacute" unicode="&#x106;" horiz-adv-x="1482" 
d="M995 1972h189l-217 -301h-140zM1339 1151q-171 158 -409 158q-155 0 -285.5 -76t-207.5 -210t-77 -296t77 -296t207.5 -210t285.5 -76q242 0 409 158v-178q-169 -145 -430 -145q-201 0 -367.5 99.5t-262 271t-95.5 376.5q0 154 56.5 292t152.5 238t231 159t285 59
q260 0 430 -146v-178z" />
    <glyph glyph-name="cacute" unicode="&#x107;" horiz-adv-x="1187" 
d="M801 1554h188l-217 -301h-139zM1044 762q-132 129 -296 129q-99 0 -186 -47.5t-140 -133.5t-53 -190q0 -159 113 -267t266 -108q165 0 296 131v-172q-127 -124 -323 -124q-149 0 -272.5 72.5t-194 196.5t-70.5 271q0 144 70.5 267.5t194.5 196.5t272 73q195 0 323 -125
v-170z" />
    <glyph glyph-name="Cdotaccent" unicode="&#x10a;" horiz-adv-x="1482" 
d="M897 1726q-41 0 -70.5 30t-29.5 71q0 42 29 71t71 29q43 0 71.5 -28.5t28.5 -71.5q0 -42 -29 -71.5t-71 -29.5zM1339 1151q-171 158 -409 158q-155 0 -285.5 -76t-207.5 -210t-77 -296t77 -296t207.5 -210t285.5 -76q242 0 409 158v-178q-169 -145 -430 -145
q-201 0 -367.5 99.5t-262 271t-95.5 376.5q0 154 56.5 292t152.5 238t231 159t285 59q260 0 430 -146v-178z" />
    <glyph glyph-name="cdotaccent" unicode="&#x10b;" horiz-adv-x="1187" 
d="M702 1309q-41 0 -70.5 29.5t-29.5 70.5q0 42 29 71t71 29q43 0 72 -28.5t29 -71.5q0 -41 -29.5 -70.5t-71.5 -29.5zM1044 762q-132 129 -296 129q-99 0 -186 -47.5t-140 -133.5t-53 -190q0 -159 113 -267t266 -108q165 0 296 131v-172q-127 -124 -323 -124
q-149 0 -272.5 72.5t-194 196.5t-70.5 271q0 144 70.5 267.5t194.5 196.5t272 73q195 0 323 -125v-170z" />
    <glyph glyph-name="Ccaron" unicode="&#x10c;" horiz-adv-x="1482" 
d="M823 1671l-229 301h162l139 -205l137 205h162l-229 -301h-142zM930 1309q-155 0 -285.5 -76t-207.5 -210t-77 -296t77 -296t207.5 -210t285.5 -76q242 0 409 158v-178q-169 -145 -430 -145q-201 0 -367.5 99.5t-262 271t-95.5 376.5q0 154 56.5 292t152.5 238t231 159
t285 59q260 0 430 -146v-178q-171 158 -409 158z" />
    <glyph glyph-name="ccaron" unicode="&#x10d;" horiz-adv-x="1187" 
d="M629 1253l-230 301h162l139 -204l138 204h161l-229 -301h-141zM748 891q-99 0 -186 -47.5t-140 -133.5t-53 -190q0 -159 113 -267t266 -108q165 0 296 131v-172q-127 -124 -323 -124q-149 0 -272.5 72.5t-194 196.5t-70.5 271q0 144 70.5 267.5t194.5 196.5t272 73
q195 0 323 -125v-170q-132 129 -296 129z" />
    <glyph glyph-name="Dcaron" unicode="&#x10e;" horiz-adv-x="1427" 
d="M547 1671l-230 301h162l139 -205l138 205h162l-230 -301h-141zM625 1454q152 0 282 -56.5t219 -154t139 -231t50 -285.5t-50 -285.5t-139 -231t-219 -154t-282 -56.5h-469v1454h469zM625 166q225 0 369.5 154.5t144.5 406.5t-144.5 406.5t-369.5 154.5h-295v-1122h295z
" />
    <glyph glyph-name="dcaron" unicode="&#x10f;" horiz-adv-x="1540" 
d="M184 520q0 146 68.5 269t189.5 195.5t267 72.5q142 0 254 -71.5t163 -184.5v735h177v-1536h-168l-9 236q-51 -113 -163 -184.5t-254 -71.5q-109 0 -207 42.5t-167.5 115t-110 172.5t-40.5 210zM1470 1489h189l-139 -391h-142zM360 520q0 -155 109 -265t266 -110
q158 0 265.5 110t107.5 265q0 153 -107.5 262t-265.5 109q-157 0 -266 -109.5t-109 -261.5z" />
    <glyph glyph-name="Dcroat" unicode="&#x110;" horiz-adv-x="1427" 
d="M625 1454q152 0 282 -56.5t219 -154t139 -231t50 -285.5t-50 -285.5t-139 -231t-219 -154t-282 -56.5h-469v643h-240v166h240v645h469zM625 166q225 0 369.5 154.5t144.5 406.5t-144.5 406.5t-369.5 154.5h-295v-479h334v-166h-334v-477h295z" />
    <glyph glyph-name="dcroat" unicode="&#x111;" horiz-adv-x="1445" 
d="M1438 1331v-166h-135v-1165h-168l-9 236q-51 -113 -163 -184.5t-254 -71.5q-109 0 -207 42.5t-167.5 115t-110 172.5t-40.5 210q0 146 68.5 269t189.5 195.5t267 72.5q142 0 254 -71.5t163 -184.5v364h-436v166h436v205h177v-205h135zM735 145q158 0 265.5 110t107.5 265
q0 153 -107.5 262t-265.5 109q-157 0 -266 -109.5t-109 -261.5q0 -155 109 -265t266 -110z" />
    <glyph glyph-name="Emacron" unicode="&#x112;" horiz-adv-x="1048" 
d="M784 1909v-166h-483v166h483zM934 1288h-604v-452h467v-166h-467v-504h604v-166h-778v1454h778v-166z" />
    <glyph glyph-name="emacron" unicode="&#x113;" horiz-adv-x="1363" 
d="M942 1491v-166h-483v166h483zM1221 508v-45h-861q5 -143 103 -234.5t256 -91.5q118 0 198.5 53.5t118.5 131.5l156 -21q-16 -56 -54 -110.5t-95 -102.5t-142 -78t-182 -30q-234 0 -384.5 154t-150.5 390q0 145 64.5 266.5t184 194t269.5 72.5q154 0 274 -76.5t182.5 -201
t62.5 -271.5zM702 899q-144 0 -240.5 -89.5t-101.5 -219.5h684q-8 127 -101.5 218t-240.5 91z" />
    <glyph glyph-name="Edotaccent" unicode="&#x116;" horiz-adv-x="1048" 
d="M545 1726q-41 0 -71 30t-30 71q0 42 29.5 71t71.5 29q43 0 71.5 -28.5t28.5 -71.5q0 -42 -29 -71.5t-71 -29.5zM934 1288h-604v-452h467v-166h-467v-504h604v-166h-778v1454h778v-166z" />
    <glyph glyph-name="edotaccent" unicode="&#x117;" horiz-adv-x="1363" 
d="M702 1309q-41 0 -70.5 29.5t-29.5 70.5q0 42 29 71t71 29q43 0 72 -28.5t29 -71.5q0 -41 -29.5 -70.5t-71.5 -29.5zM1221 508v-45h-861q5 -143 103 -234.5t256 -91.5q118 0 198.5 53.5t118.5 131.5l156 -21q-16 -56 -54 -110.5t-95 -102.5t-142 -78t-182 -30
q-234 0 -384.5 154t-150.5 390q0 145 64.5 266.5t184 194t269.5 72.5q154 0 274 -76.5t182.5 -201t62.5 -271.5zM702 899q-144 0 -240.5 -89.5t-101.5 -219.5h684q-8 127 -101.5 218t-240.5 91z" />
    <glyph glyph-name="Eogonek" unicode="&#x118;" horiz-adv-x="1048" 
d="M934 1288h-604v-452h467v-166h-467v-504h604v-166h-199q-44 -44 -59.5 -89t0.5 -73t57 -28q65 0 160 55v-141q-80 -80 -191 -80q-58 0 -102.5 32t-64 81.5t-5 115.5t65.5 127h-440v1454h778v-166z" />
    <glyph glyph-name="eogonek" unicode="&#x119;" horiz-adv-x="1363" 
d="M1221 508v-45h-861q5 -143 103 -234.5t256 -91.5q118 0 198.5 53.5t118.5 131.5l156 -21q-14 -51 -47.5 -102t-84 -97t-125 -78.5t-159.5 -41.5q-55 -64 -49.5 -118t64.5 -54q64 0 159 55v-141q-80 -80 -190 -80q-57 0 -101 30.5t-64 77.5t-9.5 110t55.5 122
q-203 26 -330 175.5t-127 364.5q0 145 64.5 266.5t184 194t269.5 72.5q154 0 274 -76.5t182.5 -201t62.5 -271.5zM702 899q-144 0 -240.5 -89.5t-101.5 -219.5h684q-8 127 -101.5 218t-240.5 91z" />
    <glyph glyph-name="Ecaron" unicode="&#x11a;" horiz-adv-x="1048" 
d="M471 1671l-229 301h161l140 -205l137 205h162l-230 -301h-141zM934 1288h-604v-452h467v-166h-467v-504h604v-166h-778v1454h778v-166z" />
    <glyph glyph-name="ecaron" unicode="&#x11b;" horiz-adv-x="1363" 
d="M629 1253l-230 301h162l139 -204l138 204h161l-229 -301h-141zM1221 508v-45h-861q5 -143 103 -234.5t256 -91.5q118 0 198.5 53.5t118.5 131.5l156 -21q-16 -56 -54 -110.5t-95 -102.5t-142 -78t-182 -30q-234 0 -384.5 154t-150.5 390q0 145 64.5 266.5t184 194
t269.5 72.5q154 0 274 -76.5t182.5 -201t62.5 -271.5zM702 899q-144 0 -240.5 -89.5t-101.5 -219.5h684q-8 127 -101.5 218t-240.5 91z" />
    <glyph glyph-name="Gbreve" unicode="&#x11e;" horiz-adv-x="1771" 
d="M911 1671q-145 0 -245.5 84t-100.5 217h140q0 -30 11.5 -60.5t34 -58t64.5 -44.5t96 -17t96 17t65 44.5t34.5 58t11.5 60.5h139q0 -133 -100.5 -217t-245.5 -84zM862 778h766q0 -237 -91 -418.5t-256 -280.5t-380 -99q-203 0 -368.5 101.5t-257 272t-91.5 373.5
t92.5 373.5t262 272.5t381.5 102q354 0 575 -304l-135 -102q-169 240 -440 240q-120 0 -224.5 -46t-178 -124t-115.5 -185.5t-42 -226.5q0 -160 69 -293t193.5 -211t278.5 -78q216 0 362.5 129.5t180.5 337.5h-582v166z" />
    <glyph glyph-name="gbreve" unicode="&#x11f;" horiz-adv-x="1232" 
d="M612 1251q-145 0 -245.5 84t-100.5 217h140q0 -30 11.5 -60.5t34 -58t64.5 -44.5t96 -17t96 17t65 44.5t34.5 58t11.5 60.5h139q0 -133 -100.5 -217t-245.5 -84zM598 168q229 0 360.5 -89t131.5 -241q0 -103 -63 -179.5t-164.5 -113.5t-225.5 -37t-225.5 37t-164.5 113.5
t-63 179.5q0 150 142 238q-95 54 -95 133q0 89 119 147q-78 53 -122 134t-44 178q0 167 122.5 278t305.5 111q110 0 205 -45l270 24v-157l-120 10q73 -95 73 -221q0 -166 -123 -277.5t-305 -111.5q-84 0 -155 24q-60 -26 -60 -65q0 -70 201 -70zM612 909q-109 0 -185.5 -69
t-76.5 -172q0 -102 77 -171t185 -69q109 0 184.5 69t75.5 171q0 103 -75 172t-185 69zM637 -344q130 0 208.5 46.5t78.5 133.5q0 182 -373 182q-9 0 -59 5q-54 -25 -98 -75.5t-44 -105.5q0 -89 78 -137.5t209 -48.5z" />
    <glyph glyph-name="Gdotaccent" unicode="&#x120;" horiz-adv-x="1771" 
d="M911 1726q-41 0 -70.5 30t-29.5 71q0 42 29 71t71 29q43 0 72 -28.5t29 -71.5q0 -42 -29.5 -71.5t-71.5 -29.5zM862 778h766q0 -237 -91 -418.5t-256 -280.5t-380 -99q-203 0 -368.5 101.5t-257 272t-91.5 373.5t92.5 373.5t262 272.5t381.5 102q354 0 575 -304
l-135 -102q-169 240 -440 240q-120 0 -224.5 -46t-178 -124t-115.5 -185.5t-42 -226.5q0 -160 69 -293t193.5 -211t278.5 -78q216 0 362.5 129.5t180.5 337.5h-582v166z" />
    <glyph glyph-name="gdotaccent" unicode="&#x121;" horiz-adv-x="1232" 
d="M612 1307q-41 0 -70.5 29.5t-29.5 70.5q0 42 29 71t71 29q43 0 72 -28.5t29 -71.5q0 -41 -29.5 -70.5t-71.5 -29.5zM598 168q229 0 360.5 -89t131.5 -241q0 -103 -63 -179.5t-164.5 -113.5t-225.5 -37t-225.5 37t-164.5 113.5t-63 179.5q0 150 142 238q-95 54 -95 133
q0 89 119 147q-78 53 -122 134t-44 178q0 167 122.5 278t305.5 111q110 0 205 -45l270 24v-157l-120 10q73 -95 73 -221q0 -166 -123 -277.5t-305 -111.5q-84 0 -155 24q-60 -26 -60 -65q0 -70 201 -70zM612 909q-109 0 -185.5 -69t-76.5 -172q0 -102 77 -171t185 -69
q109 0 184.5 69t75.5 171q0 103 -75 172t-185 69zM637 -344q130 0 208.5 46.5t78.5 133.5q0 182 -373 182q-9 0 -59 5q-54 -25 -98 -75.5t-44 -105.5q0 -89 78 -137.5t209 -48.5z" />
    <glyph glyph-name="Gcommaaccent" unicode="&#x122;" horiz-adv-x="1771" 
d="M862 778h766q0 -237 -91 -418.5t-256 -280.5t-380 -99q-203 0 -368.5 101.5t-257 272t-91.5 373.5t92.5 373.5t262 272.5t381.5 102q354 0 575 -304l-135 -102q-169 240 -440 240q-120 0 -224.5 -46t-178 -124t-115.5 -185.5t-42 -226.5q0 -160 69 -293t193.5 -211
t278.5 -78q216 0 362.5 129.5t180.5 337.5h-582v166zM729 -514l92 391h189l-140 -391h-141z" />
    <glyph glyph-name="gcommaaccent" unicode="&#x123;" horiz-adv-x="1232" 
d="M799 1651l-92 -391h-189l139 391h142zM598 168q229 0 360.5 -89t131.5 -241q0 -103 -63 -179.5t-164.5 -113.5t-225.5 -37t-225.5 37t-164.5 113.5t-63 179.5q0 150 142 238q-95 54 -95 133q0 89 119 147q-78 53 -122 134t-44 178q0 167 122.5 278t305.5 111
q110 0 205 -45l270 24v-157l-120 10q73 -95 73 -221q0 -166 -123 -277.5t-305 -111.5q-84 0 -155 24q-60 -26 -60 -65q0 -70 201 -70zM612 909q-109 0 -185.5 -69t-76.5 -172q0 -102 77 -171t185 -69q109 0 184.5 69t75.5 171q0 103 -75 172t-185 69zM637 -344
q130 0 208.5 46.5t78.5 133.5q0 182 -373 182q-9 0 -59 5q-54 -25 -98 -75.5t-44 -105.5q0 -89 78 -137.5t209 -48.5z" />
    <glyph glyph-name="Hbar" unicode="&#x126;" horiz-adv-x="1388" 
d="M1503 1239v-166h-227v-1073h-176v651h-770v-651h-174v1073h-191v166h191v215h174v-215h770v215h176v-215h227zM1100 817v256h-770v-256h770z" />
    <glyph glyph-name="hbar" unicode="&#x127;" horiz-adv-x="1282" 
d="M766 1057q182 0 283.5 -116.5t101.5 -334.5v-606h-176v532q0 187 -71.5 273t-198.5 86q-88 0 -157 -35.5t-108.5 -91.5t-59.5 -116.5t-20 -119.5v-528h-176v1137h-139v166h139v233h176v-233h433v-166h-433v-281q167 201 406 201z" />
    <glyph glyph-name="Imacron" unicode="&#x12a;" horiz-adv-x="462" 
d="M8 1909h484v-166h-484v166zM164 0v1454h176v-1454h-176z" />
    <glyph glyph-name="imacron" unicode="&#x12b;" horiz-adv-x="421" 
d="M-33 1491h484v-166h-484v166zM299 1036v-1036h-176v1036h176z" />
    <glyph glyph-name="Iogonek" unicode="&#x12e;" horiz-adv-x="462" 
d="M322 -190q64 0 159 55v-141q-80 -80 -190 -80q-58 0 -103 32t-64 81.5t-5 115.5t65 127h-20v1454h176v-1454h-16q-44 -44 -59.5 -89t0.5 -73t57 -28z" />
    <glyph glyph-name="iogonek" unicode="&#x12f;" horiz-adv-x="448" 
d="M209 1210q-41 0 -70.5 30t-29.5 71q0 42 29 71t71 29q43 0 71.5 -28.5t28.5 -71.5q0 -42 -29 -71.5t-71 -29.5zM279 -190q64 0 159 55v-141q-80 -80 -190 -80q-58 0 -103 32t-64 81.5t-5 115.5t65 127h-18v1036h176v-1036h-18q-44 -44 -59.5 -89t0.5 -73t57 -28z" />
    <glyph glyph-name="Idotaccent" unicode="&#x130;" horiz-adv-x="462" 
d="M254 1726q-41 0 -70.5 30t-29.5 71q0 42 29 71t71 29q43 0 71.5 -28.5t28.5 -71.5q0 -42 -29 -71.5t-71 -29.5zM164 0v1454h176v-1454h-176z" />
    <glyph glyph-name="dotlessi" unicode="&#x131;" horiz-adv-x="421" 
d="M299 1036v-1036h-176v1036h176z" />
    <glyph glyph-name="Kcommaaccent" unicode="&#x136;" horiz-adv-x="1341" 
d="M1219 1454l-592 -678l592 -776h-209l-496 645l-174 -199v-446h-176v1454h176v-747l651 747h228zM471 -514l92 391h189l-140 -391h-141z" />
    <glyph glyph-name="kcommaaccent" unicode="&#x137;" horiz-adv-x="1255" 
d="M1133 1036l-476 -450l476 -586h-220l-381 467l-172 -162v-305h-176v1536h176v-997l527 497h246zM436 -514l92 391h189l-139 -391h-142z" />
    <glyph glyph-name="Lacute" unicode="&#x139;" horiz-adv-x="1097" 
d="M561 1972l-217 -301h-139l168 301h188zM360 166h594v-166h-770v1454h176v-1288z" />
    <glyph glyph-name="lacute" unicode="&#x13a;" horiz-adv-x="483" 
d="M375 2054h188l-217 -301h-139zM360 1536v-1536h-176v1536h176z" />
    <glyph glyph-name="Lcommaaccent" unicode="&#x13b;" horiz-adv-x="1097" 
d="M360 166h594v-166h-770v1454h176v-1288zM332 -514l92 391h188l-139 -391h-141z" />
    <glyph glyph-name="lcommaaccent" unicode="&#x13c;" horiz-adv-x="483" 
d="M360 1536v-1536h-176v1536h176zM182 -123h189l-140 -391h-141z" />
    <glyph glyph-name="Lcaron" unicode="&#x13d;" horiz-adv-x="1097" 
d="M201 1671l-230 301h162l139 -205l138 205h161l-229 -301h-141zM360 166h594v-166h-770v1454h176v-1288z" />
    <glyph glyph-name="lcaron" unicode="&#x13e;" horiz-adv-x="909" 
d="M360 1536v-1536h-176v1536h176zM553 1489h188l-139 -391h-141z" />
    <glyph glyph-name="Lslash" unicode="&#x141;" horiz-adv-x="1097" 
d="M360 166h594v-166h-770v674l-182 -137v73l182 138v706h176v-573l189 143v-74l-189 -143v-641z" />
    <glyph glyph-name="lslash" unicode="&#x142;" horiz-adv-x="483" 
d="M545 915v-73l-185 -140v-702h-176v569l-186 -141v74l186 141v893h176v-760z" />
    <glyph glyph-name="Nacute" unicode="&#x143;" horiz-adv-x="1462" 
d="M1049 1972l-218 -301h-139l168 301h189zM1163 1454h176v-1454h-176l-823 1157v-1157h-176v1454h176l823 -1157v1157z" />
    <glyph glyph-name="nacute" unicode="&#x144;" horiz-adv-x="1282" 
d="M950 1554l-217 -301h-139l168 301h188zM766 1057q182 0 283.5 -116.5t101.5 -334.5v-606h-176v532q0 187 -71.5 273t-198.5 86q-88 0 -157 -35.5t-108.5 -91.5t-59.5 -116.5t-20 -119.5v-528h-176v1036h166l8 -180q170 201 408 201z" />
    <glyph glyph-name="Ncommaaccent" unicode="&#x145;" horiz-adv-x="1462" 
d="M1163 1454h176v-1454h-176l-823 1157v-1157h-176v1454h176l823 -1157v1157zM582 -514l92 391h188l-139 -391h-141z" />
    <glyph glyph-name="ncommaaccent" unicode="&#x146;" horiz-adv-x="1282" 
d="M766 1057q182 0 283.5 -116.5t101.5 -334.5v-606h-176v532q0 187 -71.5 273t-198.5 86q-88 0 -157 -35.5t-108.5 -91.5t-59.5 -116.5t-20 -119.5v-528h-176v1036h166l8 -180q170 201 408 201zM483 -514l92 391h189l-139 -391h-142z" />
    <glyph glyph-name="Ncaron" unicode="&#x147;" horiz-adv-x="1462" 
d="M688 1671l-229 301h162l139 -205l137 205h162l-230 -301h-141zM1163 1454h176v-1454h-176l-823 1157v-1157h-176v1454h176l823 -1157v1157z" />
    <glyph glyph-name="ncaron" unicode="&#x148;" horiz-adv-x="1282" 
d="M590 1253l-230 301h162l140 -204l137 204h162l-230 -301h-141zM766 1057q182 0 283.5 -116.5t101.5 -334.5v-606h-176v532q0 187 -71.5 273t-198.5 86q-88 0 -157 -35.5t-108.5 -91.5t-59.5 -116.5t-20 -119.5v-528h-176v1036h166l8 -180q170 201 408 201z" />
    <glyph glyph-name="Eng" unicode="&#x14a;" horiz-adv-x="1544" 
d="M1163 1454h176v-1558q0 -85 -21.5 -148.5t-59 -99.5t-82.5 -53t-97 -17q-124 0 -196 57v146q77 -37 123 -37q88 0 122.5 44.5t34.5 131.5v80l-823 1157v-1157h-176v1454h176l823 -1157v1157z" />
    <glyph glyph-name="eng" unicode="&#x14b;" horiz-adv-x="1271" 
d="M1151 606v-663q0 -85 -21.5 -149t-59 -100t-83 -53.5t-98.5 -17.5q-119 0 -197 58v147q75 -39 125 -39q88 0 123 45.5t35 132.5v565q0 187 -71.5 273t-198.5 86q-88 0 -157 -35.5t-108.5 -91.5t-59.5 -116.5t-20 -119.5v-528h-176v1036h166l8 -180q170 201 408 201
q182 0 283.5 -116.5t101.5 -334.5z" />
    <glyph glyph-name="Omacron" unicode="&#x14c;" horiz-adv-x="1796" 
d="M674 1909h483v-166h-483v166zM918 -20q-203 0 -372 100.5t-265.5 272t-96.5 374.5t96.5 375t265.5 272.5t372 100.5q153 0 290 -59.5t234 -160t154 -238.5t57 -290t-57 -290t-154 -238.5t-234 -159.5t-290 -59zM918 145q155 0 284 79t202 212.5t73 290.5t-73 290.5
t-202 212.5t-284 79q-154 0 -283 -79t-202 -212.5t-73 -290.5t73 -290.5t202 -212.5t283 -79z" />
    <glyph glyph-name="omacron" unicode="&#x14d;" horiz-adv-x="1427" 
d="M494 1491h483v-166h-483v166zM735 -20q-154 0 -280.5 72.5t-198.5 196t-72 271.5q0 146 72 269t199 195.5t280 72.5q154 0 280.5 -72.5t197.5 -195.5t71 -269q0 -148 -71 -271.5t-197.5 -196t-280.5 -72.5zM735 145q158 0 265.5 110t107.5 265q0 153 -107.5 262
t-265.5 109q-157 0 -266 -109.5t-109 -261.5q0 -155 109 -265t266 -110z" />
    <glyph glyph-name="Ohungarumlaut" unicode="&#x150;" horiz-adv-x="1796" 
d="M889 1972h188l-217 -301h-139zM1184 1972h188l-217 -301h-139zM918 -20q-203 0 -372 100.5t-265.5 272t-96.5 374.5t96.5 375t265.5 272.5t372 100.5q153 0 290 -59.5t234 -160t154 -238.5t57 -290t-57 -290t-154 -238.5t-234 -159.5t-290 -59zM918 145q155 0 284 79
t202 212.5t73 290.5t-73 290.5t-202 212.5t-284 79q-154 0 -283 -79t-202 -212.5t-73 -290.5t73 -290.5t202 -212.5t283 -79z" />
    <glyph glyph-name="ohungarumlaut" unicode="&#x151;" horiz-adv-x="1427" 
d="M709 1554h188l-217 -301h-139zM1004 1554h188l-217 -301h-139zM735 -20q-154 0 -280.5 72.5t-198.5 196t-72 271.5q0 146 72 269t199 195.5t280 72.5q154 0 280.5 -72.5t197.5 -195.5t71 -269q0 -148 -71 -271.5t-197.5 -196t-280.5 -72.5zM735 145q158 0 265.5 110
t107.5 265q0 153 -107.5 262t-265.5 109q-157 0 -266 -109.5t-109 -261.5q0 -155 109 -265t266 -110z" />
    <glyph glyph-name="OE" unicode="&#x152;" horiz-adv-x="2416" 
d="M2327 1288h-605v-452h467v-166h-467v-504h605v-166h-781v338q-97 -165 -262.5 -261.5t-365.5 -96.5q-203 0 -372 100.5t-265.5 272t-96.5 374.5t96.5 375t265.5 272.5t372 100.5q200 0 365.5 -97t262.5 -262v338h781v-166zM918 145q155 0 284 79t202 212.5t73 290.5
t-73 290.5t-202 212.5t-284 79q-154 0 -283 -79t-202 -212.5t-73 -290.5t73 -290.5t202 -212.5t283 -79z" />
    <glyph glyph-name="oe" unicode="&#x153;" horiz-adv-x="2242" 
d="M2099 508v-57h-792q17 -160 115.5 -241t267.5 -81q152 0 352 111v-136q-68 -54 -170.5 -89t-212.5 -35q-156 0 -275 64.5t-184 182.5q-73 -115 -195 -181t-270 -66q-154 0 -280.5 72.5t-198.5 196t-72 271.5q0 146 72 269t199 195.5t280 72.5q147 0 269 -66.5t194 -179.5
q66 115 177 180.5t251 65.5q146 0 254.5 -72.5t163.5 -196t55 -280.5zM1630 899q-132 0 -219 -83.5t-104 -233.5h620q-15 149 -91 233t-206 84zM735 145q158 0 265.5 110t107.5 265q0 153 -107.5 262t-265.5 109q-157 0 -266 -109.5t-109 -261.5q0 -155 109 -265t266 -110z
" />
    <glyph glyph-name="Racute" unicode="&#x154;" horiz-adv-x="1271" 
d="M889 1972l-217 -301h-140l168 301h189zM958 0l-309 487h-319v-487h-174v1454h518q93 0 178.5 -33.5t151.5 -94.5t105.5 -153t39.5 -202q0 -170 -89 -290.5t-229 -168.5l328 -512h-201zM330 1288v-635h344q125 0 213 87t88 231t-88 230.5t-213 86.5h-344z" />
    <glyph glyph-name="racute" unicode="&#x155;" horiz-adv-x="790" 
d="M760 1554l-217 -301h-140l168 301h189zM358 905q109 152 240 152q79 0 131 -45l-31 -154q-47 33 -110 33q-77 0 -129.5 -54.5t-75.5 -136.5t-23 -184v-516h-176v1036h166z" />
    <glyph glyph-name="Rcommaaccent" unicode="&#x156;" horiz-adv-x="1271" 
d="M831 512l328 -512h-201l-309 487h-319v-487h-174v1454h518q93 0 178.5 -33.5t151.5 -94.5t105.5 -153t39.5 -202q0 -170 -89 -290.5t-229 -168.5zM330 1288v-635h344q125 0 213 87t88 231t-88 230.5t-213 86.5h-344zM440 -514l92 391h189l-139 -391h-142z" />
    <glyph glyph-name="rcommaaccent" unicode="&#x157;" horiz-adv-x="790" 
d="M598 1057q79 0 131 -45l-31 -154q-47 33 -110 33q-77 0 -129.5 -54.5t-75.5 -136.5t-23 -184v-516h-176v1036h166l8 -131q109 152 240 152zM84 -514l92 391h189l-140 -391h-141z" />
    <glyph glyph-name="Rcaron" unicode="&#x158;" horiz-adv-x="1271" 
d="M530 1671l-229 301h162l139 -205l137 205h162l-229 -301h-142zM958 0l-309 487h-319v-487h-174v1454h518q93 0 178.5 -33.5t151.5 -94.5t105.5 -153t39.5 -202q0 -170 -89 -290.5t-229 -168.5l328 -512h-201zM330 1288v-635h344q125 0 213 87t88 231t-88 230.5t-213 86.5
h-344z" />
    <glyph glyph-name="rcaron" unicode="&#x159;" horiz-adv-x="790" 
d="M399 1253l-229 301h162l139 -204l137 204h162l-229 -301h-142zM358 905q109 152 240 152q79 0 131 -45l-31 -154q-47 33 -110 33q-77 0 -129.5 -54.5t-75.5 -136.5t-23 -184v-516h-176v1036h166z" />
    <glyph glyph-name="Sacute" unicode="&#x15a;" horiz-adv-x="1261" 
d="M764 1972h188l-217 -301h-139zM207 406h176q9 -125 93 -193t198 -68q124 0 197 58.5t73 150.5q0 38 -10 70.5t-33.5 61t-46.5 50.5t-65.5 47.5t-73 42.5t-84.5 44q-86 46 -140 79t-107.5 75t-82 82.5t-46 94t-17.5 117.5q0 156 119.5 256.5t293.5 100.5q176 0 291.5 -115
t124.5 -283h-176q-9 102 -75 167t-165 65q-100 0 -168.5 -55.5t-68.5 -143.5q0 -53 16 -92.5t60 -74t76 -52.5t108 -55q3 -2 5 -2.5t4.5 -2t4.5 -2.5q107 -55 177 -99.5t132 -102.5t91.5 -127t29.5 -152q0 -168 -125.5 -268t-318.5 -100q-197 0 -327.5 121t-139.5 305z" />
    <glyph glyph-name="sacute" unicode="&#x15b;" horiz-adv-x="1153" 
d="M682 1554h188l-217 -301h-139zM184 287h176q21 -73 88 -115.5t173 -42.5q95 0 154 37t59 98q0 19 -3.5 35.5t-13.5 31t-18.5 25t-29 23t-34.5 20t-45.5 20.5t-50.5 20t-61.5 22.5t-67.5 25.5q-63 21 -110.5 45t-91 58.5t-66.5 82.5t-23 107q0 84 51 148.5t129.5 96.5
t169.5 32q162 0 264.5 -82.5t110.5 -210.5h-174q-9 68 -65.5 106.5t-131.5 38.5q-69 0 -124.5 -35t-55.5 -94q0 -16 3.5 -29t13 -25t18 -21.5t28 -20.5t33.5 -18.5t43.5 -19.5t49 -19.5t59 -22t64.5 -24.5q153 -57 229 -132t76 -188q0 -127 -110.5 -203.5t-283.5 -76.5
q-182 0 -298 80t-134 227z" />
    <glyph glyph-name="Scedilla" unicode="&#x15e;" horiz-adv-x="1261" 
d="M1118 348q0 -158 -110.5 -256t-286.5 -110l-43 -82q85 -2 136.5 -37t51.5 -99q0 -30 -11 -55t-32.5 -42t-44.5 -29.5t-58 -20t-60 -12t-63 -6t-55 -2t-48 -0.5l32 86q110 0 173 16.5t63 62.5q0 64 -123 64l-100 -4l61 162q-169 23 -277 140t-116 282h176q9 -125 93 -193
t198 -68q124 0 197 58.5t73 150.5q0 38 -10 70.5t-33.5 61t-46.5 50.5t-65.5 47.5t-73 42.5t-84.5 44q-86 46 -140 79t-107.5 75t-82 82.5t-46 94t-17.5 117.5q0 156 119.5 256.5t293.5 100.5q176 0 291.5 -115t124.5 -283h-176q-9 102 -75 167t-165 65q-100 0 -168.5 -55.5
t-68.5 -143.5q0 -53 16 -92.5t60 -74t76 -52.5t108 -55q3 -2 5 -2.5t4.5 -2t4.5 -2.5q107 -55 177 -99.5t132 -102.5t91.5 -127t29.5 -152z" />
    <glyph glyph-name="scedilla" unicode="&#x15f;" horiz-adv-x="1153" 
d="M1010 260q0 -118 -95.5 -192.5t-250.5 -85.5l-43 -82q85 -2 136.5 -37t51.5 -99q0 -35 -16 -62t-38 -44.5t-59.5 -29.5t-66 -18t-72.5 -9t-65 -3.5t-56 -0.5l33 86q110 0 173 16.5t63 62.5q0 64 -123 64l-101 -4l62 162q-152 15 -247 93.5t-112 209.5h176
q21 -73 88 -115.5t173 -42.5q95 0 154 37t59 98q0 19 -3.5 35.5t-13.5 31t-18.5 25t-29 23t-34.5 20t-45.5 20.5t-50.5 20t-61.5 22.5t-67.5 25.5q-63 21 -110.5 45t-91 58.5t-66.5 82.5t-23 107q0 84 51 148.5t129.5 96.5t169.5 32q162 0 264.5 -82.5t110.5 -210.5h-174
q-9 68 -65.5 106.5t-131.5 38.5q-69 0 -124.5 -35t-55.5 -94q0 -16 3.5 -29t13 -25t18 -21.5t28 -20.5t33.5 -18.5t43.5 -19.5t49 -19.5t59 -22t64.5 -24.5q153 -57 229 -132t76 -188z" />
    <glyph glyph-name="Scaron" unicode="&#x160;" horiz-adv-x="1261" 
d="M592 1671l-230 301h162l140 -205l137 205h162l-230 -301h-141zM688 829q107 -55 177 -99.5t132 -102.5t91.5 -127t29.5 -152q0 -168 -125.5 -268t-318.5 -100q-197 0 -327.5 121t-139.5 305h176q9 -125 93 -193t198 -68q124 0 197 58.5t73 150.5q0 38 -10 70.5t-33.5 61
t-46.5 50.5t-65.5 47.5t-73 42.5t-84.5 44q-86 46 -140 79t-107.5 75t-82 82.5t-46 94t-17.5 117.5q0 156 119.5 256.5t293.5 100.5q176 0 291.5 -115t124.5 -283h-176q-9 102 -75 167t-165 65q-100 0 -168.5 -55.5t-68.5 -143.5q0 -53 16 -92.5t60 -74t76 -52.5t108 -55
q3 -2 5 -2.5t4.5 -2t4.5 -2.5z" />
    <glyph glyph-name="scaron" unicode="&#x161;" horiz-adv-x="1153" 
d="M510 1253l-229 301h161l140 -204l137 204h162l-230 -301h-141zM705 580q153 -57 229 -132t76 -188q0 -127 -110.5 -203.5t-283.5 -76.5q-182 0 -298 80t-134 227h176q21 -73 88 -115.5t173 -42.5q95 0 154 37t59 98q0 19 -3.5 35.5t-13.5 31t-18.5 25t-29 23t-34.5 20
t-45.5 20.5t-50.5 20t-61.5 22.5t-67.5 25.5q-63 21 -110.5 45t-91 58.5t-66.5 82.5t-23 107q0 84 51 148.5t129.5 96.5t169.5 32q162 0 264.5 -82.5t110.5 -210.5h-174q-9 68 -65.5 106.5t-131.5 38.5q-69 0 -124.5 -35t-55.5 -94q0 -16 3.5 -29t13 -25t18 -21.5t28 -20.5
t33.5 -18.5t43.5 -19.5t49 -19.5t59 -22t64.5 -24.5z" />
    <glyph glyph-name="uni0162" unicode="&#x162;" horiz-adv-x="1134" 
d="M676 0h-23l-53 -100q85 -2 136.5 -37t51.5 -99q0 -30 -11 -55t-32.5 -42t-44.5 -29.5t-58 -20t-60 -12t-63 -6t-55 -2t-48 -0.5l33 86q110 0 172.5 16.5t62.5 62.5q0 64 -123 64l-100 -4l67 178h-28v1288h-357v166h889v-166h-356v-1288z" />
    <glyph glyph-name="uni0163" unicode="&#x163;" horiz-adv-x="761" 
d="M444 0h-22l-53 -100q85 -2 136.5 -37t51.5 -99q0 -35 -16 -62t-38 -44.5t-59.5 -29.5t-66 -18t-72.5 -9t-65 -3.5t-56 -0.5l33 86q110 0 173 16.5t63 62.5q0 64 -123 64l-101 -4l68 178h-27v870h-147v166h147v307h174v-307h215v-166h-215v-870z" />
    <glyph glyph-name="Tcaron" unicode="&#x164;" horiz-adv-x="1134" 
d="M514 1671l-229 301h161l140 -205l137 205h162l-230 -301h-141zM1032 1454v-166h-356v-1288h-176v1288h-357v166h889z" />
    <glyph glyph-name="tcaron" unicode="&#x165;" horiz-adv-x="761" 
d="M670 1526h188l-139 -391h-141zM444 1343v-307h215v-166h-215v-870h-174v870h-147v166h147v307h174z" />
    <glyph glyph-name="Tbar" unicode="&#x166;" horiz-adv-x="1134" 
d="M1032 1288h-356v-479h287v-166h-287v-643h-176v643h-285v166h285v479h-357v166h889v-166z" />
    <glyph glyph-name="tbar" unicode="&#x167;" horiz-adv-x="761" 
d="M659 870h-215v-233h177v-166h-177v-471h-174v471h-123v166h123v233h-147v166h147v307h174v-307h215v-166z" />
    <glyph glyph-name="Utilde" unicode="&#x168;" horiz-adv-x="1396" 
d="M295 1737q7 97 64.5 162t166.5 65q43 0 83 -15t70.5 -37t60 -43.5t64.5 -36.5t70 -15q57 0 88 29.5t31 80.5l150 -26q-8 -98 -66 -163t-168 -65q-43 0 -83 15t-70.5 37t-60 44t-63.5 37t-69 15q-56 0 -87.5 -32t-31.5 -79zM1284 598q0 -311 -149 -464.5t-416 -153.5
q-265 0 -414 154t-149 464v856h174v-856q0 -453 389 -453t389 453v856h176v-856z" />
    <glyph glyph-name="utilde" unicode="&#x169;" horiz-adv-x="1282" 
d="M516 1403q-56 0 -87.5 -32t-31.5 -79l-149 27q7 97 64.5 162t166.5 65q43 0 83 -15t70.5 -37t60 -43.5t64.5 -36.5t70 -15q57 0 88 29.5t31 80.5l150 -26q-8 -98 -66 -163t-168 -65q-43 0 -83 15t-70.5 37t-60 44t-63.5 37t-69 15zM965 1036h174v-1036h-166l-6 182
q-172 -202 -410 -202q-182 0 -283.5 116.5t-101.5 333.5v606h176v-532q0 -187 71.5 -273t198.5 -86q88 0 157 35.5t108.5 91.5t59.5 116.5t20 119.5h2v528z" />
    <glyph glyph-name="Umacron" unicode="&#x16a;" horiz-adv-x="1396" 
d="M475 1909h483v-166h-483v166zM1284 598q0 -311 -149 -464.5t-416 -153.5q-265 0 -414 154t-149 464v856h174v-856q0 -453 389 -453t389 453v856h176v-856z" />
    <glyph glyph-name="umacron" unicode="&#x16b;" horiz-adv-x="1282" 
d="M911 1491v-166h-483v166h483zM965 1036h174v-1036h-166l-6 182q-172 -202 -410 -202q-182 0 -283.5 116.5t-101.5 333.5v606h176v-532q0 -187 71.5 -273t198.5 -86q88 0 157 35.5t108.5 91.5t59.5 116.5t20 119.5h2v528z" />
    <glyph glyph-name="Uring" unicode="&#x16e;" horiz-adv-x="1396" 
d="M719 1681q-65 0 -110.5 45.5t-45.5 110.5t45.5 110.5t110.5 45.5q64 0 109.5 -45.5t45.5 -110.5t-45.5 -110.5t-109.5 -45.5zM719 1767q29 0 49 20.5t20 49.5t-20 49.5t-49 20.5t-49.5 -20.5t-20.5 -49.5t20.5 -49.5t49.5 -20.5zM1284 598q0 -311 -149 -464.5
t-416 -153.5q-265 0 -414 154t-149 464v856h174v-856q0 -453 389 -453t389 453v856h176v-856z" />
    <glyph glyph-name="uring" unicode="&#x16f;" horiz-adv-x="1282" 
d="M672 1264q-65 0 -110.5 45.5t-45.5 109.5q0 65 46 110.5t110 45.5t109.5 -45.5t45.5 -110.5t-45.5 -110t-109.5 -45zM672 1489q-29 0 -49.5 -20.5t-20.5 -49.5t20.5 -49t49.5 -20t49 20t20 49t-20 49.5t-49 20.5zM965 1036h174v-1036h-166l-6 182q-172 -202 -410 -202
q-182 0 -283.5 116.5t-101.5 333.5v606h176v-532q0 -187 71.5 -273t198.5 -86q88 0 157 35.5t108.5 91.5t59.5 116.5t20 119.5h2v528z" />
    <glyph glyph-name="Uhungarumlaut" unicode="&#x170;" horiz-adv-x="1396" 
d="M690 1972h189l-217 -301h-140zM985 1972h189l-218 -301h-139zM1284 598q0 -311 -149 -464.5t-416 -153.5q-265 0 -414 154t-149 464v856h174v-856q0 -453 389 -453t389 453v856h176v-856z" />
    <glyph glyph-name="uhungarumlaut" unicode="&#x171;" horiz-adv-x="1282" 
d="M831 1554l-217 -301h-139l168 301h188zM909 1253h-139l168 301h188zM965 1036h174v-1036h-166l-6 182q-172 -202 -410 -202q-182 0 -283.5 116.5t-101.5 333.5v606h176v-532q0 -187 71.5 -273t198.5 -86q88 0 157 35.5t108.5 91.5t59.5 116.5t20 119.5h2v528z" />
    <glyph glyph-name="Uogonek" unicode="&#x172;" horiz-adv-x="1396" 
d="M1108 1454h176v-856q0 -299 -139.5 -453t-390.5 -165q-40 -58 -31 -104t63 -46q65 0 160 55v-141q-80 -80 -190 -80q-73 0 -123 48t-54.5 119.5t44.5 154.5q-222 25 -344.5 178.5t-122.5 433.5v856h174v-856q0 -453 389 -453t389 453v856z" />
    <glyph glyph-name="uogonek" unicode="&#x173;" horiz-adv-x="1282" 
d="M1133 -190q64 0 159 55v-141q-80 -80 -190 -80q-58 0 -103 32t-64 81.5t-5 115.5t65 127h-22l-6 182q-172 -202 -410 -202q-182 0 -283.5 116.5t-101.5 333.5v606h176v-532q0 -187 71.5 -273t198.5 -86q88 0 157 35.5t108.5 91.5t59.5 116.5t20 119.5h2v528h174v-1036h-4
q-44 -44 -59.5 -89t0.5 -73t57 -28z" />
    <glyph glyph-name="Wcircumflex" unicode="&#x174;" horiz-adv-x="2342" 
d="M1194 1876l-139 -205h-162l229 301h142l229 -301h-162zM2060 1454h181l-465 -1454h-209l-375 1174l-375 -1174h-209l-465 1454h181l389 -1223l389 1223h180l389 -1223z" />
    <glyph glyph-name="wcircumflex" unicode="&#x175;" horiz-adv-x="1966" 
d="M1010 1458l-140 -205h-161l229 301h141l230 -301h-162zM1657 1036h186l-375 -1036h-184l-280 778l-283 -778h-182l-375 1036h186l281 -821l278 821h187l280 -821z" />
    <glyph glyph-name="Ycircumflex" unicode="&#x176;" horiz-adv-x="1466" 
d="M756 1876l-140 -205h-161l229 301h141l230 -301h-162zM1165 1454h199l-522 -848v-606h-176v606l-523 848h199l412 -668z" />
    <glyph glyph-name="ycircumflex" unicode="&#x177;" horiz-adv-x="1372" 
d="M717 1458l-139 -205h-162l229 301h141l230 -301h-162zM1061 1036h188l-653 -1507h-186l204 473l-450 1034h188l357 -817z" />
    <glyph glyph-name="Ydieresis" unicode="&#x178;" horiz-adv-x="1466" 
d="M586 1726q-41 0 -71 30t-30 71q0 42 29.5 71t71.5 29q43 0 71.5 -28.5t28.5 -71.5q0 -42 -29 -71.5t-71 -29.5zM924 1726q-41 0 -71 30t-30 71q0 42 29.5 71t71.5 29q43 0 71.5 -28.5t28.5 -71.5q0 -42 -29 -71.5t-71 -29.5zM1165 1454h199l-522 -848v-606h-176v606
l-523 848h199l412 -668z" />
    <glyph glyph-name="Zacute" unicode="&#x179;" horiz-adv-x="1413" 
d="M1034 1972l-217 -301h-139l168 301h188zM1290 1454v-166l-878 -1122h878v-166h-1106v166l879 1122h-879v166h1106z" />
    <glyph glyph-name="zacute" unicode="&#x17a;" horiz-adv-x="1144" 
d="M885 1554l-217 -301h-140l168 301h189zM1022 1036v-166l-602 -704h602v-166h-838v166l604 704h-604v166h838z" />
    <glyph glyph-name="Zdotaccent" unicode="&#x17b;" horiz-adv-x="1413" 
d="M748 1726q-41 0 -71 30t-30 71q0 42 29.5 71t71.5 29q43 0 71.5 -28.5t28.5 -71.5q0 -42 -29 -71.5t-71 -29.5zM1290 1454v-166l-878 -1122h878v-166h-1106v166l879 1122h-879v166h1106z" />
    <glyph glyph-name="zdotaccent" unicode="&#x17c;" horiz-adv-x="1144" 
d="M598 1309q-41 0 -70.5 29.5t-29.5 70.5q0 42 29 71t71 29q43 0 71.5 -28.5t28.5 -71.5q0 -42 -29 -71t-71 -29zM1022 1036v-166l-602 -704h602v-166h-838v166l604 704h-604v166h838z" />
    <glyph glyph-name="Zcaron" unicode="&#x17d;" horiz-adv-x="1413" 
d="M674 1671l-230 301h162l139 -205l138 205h161l-229 -301h-141zM1290 1454v-166l-878 -1122h878v-166h-1106v166l879 1122h-879v166h1106z" />
    <glyph glyph-name="zcaron" unicode="&#x17e;" horiz-adv-x="1144" 
d="M524 1253l-229 301h162l139 -204l137 204h162l-229 -301h-142zM1022 1036v-166l-602 -704h602v-166h-838v166l604 704h-604v166h838z" />
    <glyph glyph-name="Scommaaccent" unicode="&#x218;" horiz-adv-x="1261" 
d="M207 406h176q9 -125 93 -193t198 -68q124 0 197 58.5t73 150.5q0 38 -10 70.5t-33.5 61t-46.5 50.5t-65.5 47.5t-73 42.5t-84.5 44q-86 46 -140 79t-107.5 75t-82 82.5t-46 94t-17.5 117.5q0 156 119.5 256.5t293.5 100.5q176 0 291.5 -115t124.5 -283h-176
q-9 102 -75 167t-165 65q-100 0 -168.5 -55.5t-68.5 -143.5q0 -53 16 -92.5t60 -74t76 -52.5t108 -55q3 -2 5 -2.5t4.5 -2t4.5 -2.5q107 -55 177 -99.5t132 -102.5t91.5 -127t29.5 -152q0 -168 -125.5 -268t-318.5 -100q-197 0 -327.5 121t-139.5 305zM578 -123h188
l-139 -391h-142z" />
    <glyph glyph-name="scommaaccent" unicode="&#x219;" horiz-adv-x="1153" 
d="M184 287h176q21 -73 88 -115.5t173 -42.5q95 0 154 37t59 98q0 19 -3.5 35.5t-13.5 31t-18.5 25t-29 23t-34.5 20t-45.5 20.5t-50.5 20t-61.5 22.5t-67.5 25.5q-63 21 -110.5 45t-91 58.5t-66.5 82.5t-23 107q0 84 51 148.5t129.5 96.5t169.5 32q162 0 264.5 -82.5
t110.5 -210.5h-174q-9 68 -65.5 106.5t-131.5 38.5q-69 0 -124.5 -35t-55.5 -94q0 -16 3.5 -29t13 -25t18 -21.5t28 -20.5t33.5 -18.5t43.5 -19.5t49 -19.5t59 -22t64.5 -24.5q153 -57 229 -132t76 -188q0 -127 -110.5 -203.5t-283.5 -76.5q-182 0 -298 80t-134 227z
M520 -123h189l-140 -391h-141z" />
    <glyph glyph-name="uni021A" unicode="&#x21a;" horiz-adv-x="1134" 
d="M1032 1454v-166h-356v-1288h-176v1288h-357v166h889zM408 -514l92 391h188l-139 -391h-141z" />
    <glyph glyph-name="uni021B" unicode="&#x21b;" horiz-adv-x="761" 
d="M444 1036h215v-166h-215v-870h-174v870h-147v166h147v307h174v-307zM176 -514l92 391h189l-140 -391h-141z" />
    <glyph glyph-name="circumflex" unicode="&#x2c6;" horiz-adv-x="1009" 
d="M805 1180h-162l-137 204l-139 -204h-162l229 301h141z" />
    <glyph glyph-name="caron" unicode="&#x2c7;" horiz-adv-x="1009" 
d="M643 1481h162l-232 -301h-139l-229 301h162l139 -205z" />
    <glyph glyph-name="breve" unicode="&#x2d8;" horiz-adv-x="1101" 
d="M897 1481q0 -133 -100.5 -217t-245.5 -84t-245.5 84t-100.5 217h139q0 -30 11.5 -60.5t34.5 -58t65 -45t96 -17.5t96 17.5t65 45t34.5 58t11.5 60.5h139z" />
    <glyph glyph-name="dotaccent" unicode="&#x2d9;" horiz-adv-x="610" 
d="M305 1235q-41 0 -70.5 29.5t-29.5 70.5q0 43 29.5 72t70.5 29q43 0 72 -29t29 -72q0 -41 -29 -70.5t-72 -29.5z" />
    <glyph glyph-name="ring" unicode="&#x2da;" horiz-adv-x="720" 
d="M360 1190q-64 0 -109.5 45.5t-45.5 110.5q0 64 45.5 109.5t109.5 45.5q65 0 110.5 -45.5t45.5 -109.5t-46 -110t-110 -46zM360 1276q29 0 49.5 20.5t20.5 49.5t-20.5 49t-49.5 20t-49 -20t-20 -49t20 -49.5t49 -20.5z" />
    <glyph glyph-name="ogonek" unicode="&#x2db;" horiz-adv-x="782" 
d="M578 -135v-141q-80 -80 -193 -80q-58 0 -102.5 32t-63 81.5t-4 115.5t65.5 127h139q-44 -44 -59.5 -89t0.5 -73t57 -28q65 0 160 55z" />
    <glyph glyph-name="tilde" unicode="&#x2dc;" horiz-adv-x="1257" 
d="M205 1245q7 97 64.5 162.5t166.5 65.5q43 0 83 -15t70.5 -37t60 -44t64.5 -37t70 -15q57 0 88 30t31 81l150 -27q-4 -46 -19 -85t-42 -72t-71.5 -51.5t-101.5 -18.5q-52 0 -102 23t-82 50.5t-76 50.5t-86 23q-56 0 -87.5 -31.5t-31.5 -78.5z" />
    <glyph glyph-name="hungarumlaut" unicode="&#x2dd;" horiz-adv-x="1060" 
d="M373 1481h188l-217 -301h-139zM670 1481h186l-217 -301h-139z" />
    <glyph glyph-name="gravecomb" unicode="&#x300;" 
d="M-373 1481l168 -301h-139l-215 301h186z" />
    <glyph glyph-name="acutecomb" unicode="&#x301;" 
d="M-393 1481h188l-217 -301h-139z" />
    <glyph glyph-name="uni0302" unicode="&#x302;" 
d="M-207 1180h-162l-137 204l-139 -204h-162l229 301h142z" />
    <glyph glyph-name="tildecomb" unicode="&#x303;" 
d="M-1053 1245q7 97 65 162.5t167 65.5q43 0 83 -15t70.5 -37t60 -44t64.5 -37t70 -15q57 0 88 30t31 81l149 -27q-8 -98 -65.5 -162.5t-167.5 -64.5q-52 0 -102 23t-82 50.5t-76 50.5t-86 23q-56 0 -87.5 -31.5t-31.5 -78.5z" />
    <glyph glyph-name="uni0304" unicode="&#x304;" 
d="M-694 1417h481v-166h-481v166z" />
    <glyph glyph-name="uni0306" unicode="&#x306;" 
d="M-205 1481q0 -133 -100.5 -217t-245.5 -84t-245.5 84t-100.5 217h139q0 -30 11.5 -60.5t34.5 -58t65 -45t96 -17.5t96 17.5t65 45t34.5 58t11.5 60.5h139z" />
    <glyph glyph-name="uni0307" unicode="&#x307;" 
d="M-305 1235q-41 0 -71 29.5t-30 70.5q0 42 29.5 71.5t71.5 29.5q43 0 71.5 -29t28.5 -72q0 -42 -29 -71t-71 -29z" />
    <glyph glyph-name="uni0308" unicode="&#x308;" 
d="M-633 1235q-41 0 -70.5 29.5t-29.5 70.5q0 43 29.5 72t70.5 29q43 0 72 -29t29 -72q0 -41 -29 -70.5t-72 -29.5zM-295 1235q-41 0 -70.5 29.5t-29.5 70.5q0 43 29.5 72t70.5 29q43 0 71.5 -29t28.5 -72q0 -42 -29 -71t-71 -29z" />
    <glyph glyph-name="uni030A" unicode="&#x30a;" 
d="M-360 1190q-64 0 -110 46t-46 110t45.5 109.5t110.5 45.5q64 0 109.5 -45.5t45.5 -109.5q0 -65 -45.5 -110.5t-109.5 -45.5zM-360 1276q29 0 49 20.5t20 49.5t-20 49t-49 20t-49.5 -20t-20.5 -49t20.5 -49.5t49.5 -20.5z" />
    <glyph glyph-name="uni030B" unicode="&#x30b;" 
d="M-647 1481h188l-217 -301h-139zM-350 1481h186l-217 -301h-139z" />
    <glyph glyph-name="uni030C" unicode="&#x30c;" 
d="M-369 1481h162l-229 -301h-142l-229 301h162l139 -205z" />
    <glyph glyph-name="uni0312" unicode="&#x312;" 
d="M-297 1188h-188l139 391h141z" />
    <glyph glyph-name="uni0326" unicode="&#x326;" 
d="M-393 -123h188l-139 -391h-141z" />
    <glyph glyph-name="uni0327" unicode="&#x327;" 
d="M-319 -100q85 -2 136.5 -37t51.5 -99q0 -35 -16 -62t-38 -44.5t-59.5 -29.5t-66 -18t-72.5 -9t-65 -3.5t-56 -0.5l33 86q110 0 172.5 16.5t62.5 62.5q0 61 -122 64l-101 -4l68 178h125z" />
    <glyph glyph-name="uni0328" unicode="&#x328;" 
d="M-180 -135v-141q-80 -80 -191 -80q-58 0 -102.5 32t-64 81.5t-5 115.5t65.5 127h139q-44 -44 -59.5 -89t0.5 -73t57 -28q65 0 160 55z" />
    <glyph glyph-name="uni0335" unicode="&#x335;" 
d="M-954 565h749v-168h-749v168z" />
    <glyph glyph-name="uni0336" unicode="&#x336;" 
d="M-1587 555h1538v-166h-1538v166z" />
    <glyph glyph-name="uni0337" unicode="&#x337;" 
d="M-752 238v73l547 414v-74z" />
    <glyph glyph-name="uni0338" unicode="&#x338;" 
d="M-172 1536l-1223 -1618h-73l1222 1618h74z" />
    <glyph glyph-name="Wgrave" unicode="&#x1e80;" horiz-adv-x="2342" 
d="M1262 1671h-140l-217 301h189zM2060 1454h181l-465 -1454h-209l-375 1174l-375 -1174h-209l-465 1454h181l389 -1223l389 1223h180l389 -1223z" />
    <glyph glyph-name="wgrave" unicode="&#x1e81;" horiz-adv-x="1966" 
d="M1077 1253h-139l-217 301h188zM1657 1036h186l-375 -1036h-184l-280 778l-283 -778h-182l-375 1036h186l281 -821l278 821h187l280 -821z" />
    <glyph glyph-name="Wacute" unicode="&#x1e82;" horiz-adv-x="2342" 
d="M1479 1972l-217 -301h-140l168 301h189zM2060 1454h181l-465 -1454h-209l-375 1174l-375 -1174h-209l-465 1454h181l389 -1223l389 1223h180l389 -1223z" />
    <glyph glyph-name="wacute" unicode="&#x1e83;" horiz-adv-x="1966" 
d="M1294 1554l-217 -301h-139l168 301h188zM1657 1036h186l-375 -1036h-184l-280 778l-283 -778h-182l-375 1036h186l281 -821l278 821h187l280 -821z" />
    <glyph glyph-name="Wdieresis" unicode="&#x1e84;" horiz-adv-x="2342" 
d="M1024 1726q-41 0 -70.5 30t-29.5 71q0 42 29 71t71 29q43 0 71.5 -28.5t28.5 -71.5q0 -42 -29 -71.5t-71 -29.5zM1362 1726q-41 0 -70.5 30t-29.5 71q0 42 29 71t71 29q43 0 71.5 -28.5t28.5 -71.5q0 -42 -29 -71.5t-71 -29.5zM2060 1454h181l-465 -1454h-209l-375 1174
l-375 -1174h-209l-465 1454h181l389 -1223l389 1223h180l389 -1223z" />
    <glyph glyph-name="wdieresis" unicode="&#x1e85;" horiz-adv-x="1966" 
d="M838 1309q-41 0 -71 29.5t-30 70.5q0 42 29.5 71t71.5 29q43 0 71.5 -28.5t28.5 -71.5q0 -42 -29 -71t-71 -29zM1176 1309q-41 0 -71 29.5t-30 70.5q0 42 29.5 71t71.5 29q43 0 71.5 -28.5t28.5 -71.5q0 -42 -29 -71t-71 -29zM1657 1036h186l-375 -1036h-184l-280 778
l-283 -778h-182l-375 1036h186l281 -821l278 821h187l280 -821z" />
    <glyph glyph-name="uni1EBC" unicode="&#x1ebc;" horiz-adv-x="1048" 
d="M389 1821q-56 0 -87.5 -32t-31.5 -79l-149 27q7 97 64.5 162t166.5 65q43 0 83 -15t70.5 -37t60 -43.5t64.5 -36.5t70 -15q57 0 88 29.5t31 80.5l150 -26q-8 -98 -66 -163t-168 -65q-43 0 -83 15t-70.5 37t-60 44t-63.5 37t-69 15zM156 1454h778v-166h-604v-452h467v-166
h-467v-504h604v-166h-778v1454z" />
    <glyph glyph-name="uni1EBD" unicode="&#x1ebd;" horiz-adv-x="1363" 
d="M547 1403q-56 0 -87.5 -32t-31.5 -79l-149 27q7 97 64.5 162t166.5 65q43 0 83 -15t70.5 -37t60 -43.5t64.5 -36.5t70 -15q57 0 88 29.5t31 80.5l149 -26q-8 -98 -65.5 -163t-167.5 -65q-43 0 -83 15t-70.5 37t-60 44t-63.5 37t-69 15zM1221 508v-45h-861
q5 -143 103 -234.5t256 -91.5q118 0 198.5 53.5t118.5 131.5l156 -21q-16 -56 -54 -110.5t-95 -102.5t-142 -78t-182 -30q-234 0 -384.5 154t-150.5 390q0 145 64.5 266.5t184 194t269.5 72.5q154 0 274 -76.5t182.5 -201t62.5 -271.5zM702 899q-144 0 -240.5 -89.5
t-101.5 -219.5h684q-8 127 -101.5 218t-240.5 91z" />
    <glyph glyph-name="Ygrave" unicode="&#x1ef2;" horiz-adv-x="1466" 
d="M823 1671h-139l-217 301h188zM1165 1454h199l-522 -848v-606h-176v606l-523 848h199l412 -668z" />
    <glyph glyph-name="ygrave" unicode="&#x1ef3;" horiz-adv-x="1372" 
d="M618 1554l168 -301h-139l-217 301h188zM164 1036h188l357 -817l352 817h188l-653 -1507h-186l204 473z" />
    <glyph glyph-name="uni1EF8" unicode="&#x1ef8;" horiz-adv-x="1466" 
d="M598 1821q-56 0 -87.5 -32t-31.5 -79l-149 27q7 97 64.5 162t166.5 65q43 0 83 -15t70.5 -37t60 -43.5t64.5 -36.5t70 -15q57 0 88 29.5t31 80.5l150 -26q-8 -98 -66 -163t-168 -65q-43 0 -83 15t-70.5 37t-60 44t-63.5 37t-69 15zM1165 1454h199l-522 -848v-606h-176
v606l-523 848h199l412 -668z" />
    <glyph glyph-name="uni1EF9" unicode="&#x1ef9;" horiz-adv-x="1372" 
d="M293 1319q7 97 64.5 162t166.5 65q43 0 83 -15t70.5 -37t60 -43.5t64.5 -36.5t70 -15q57 0 88 29.5t31 80.5l150 -26q-8 -98 -66 -163t-168 -65q-43 0 -83 15t-70.5 37t-60 44t-63.5 37t-69 15q-56 0 -87.5 -32t-31.5 -79zM164 1036h188l357 -817l352 817h188l-653 -1507
h-186l204 473z" />
    <glyph glyph-name="endash" unicode="&#x2013;" horiz-adv-x="1787" 
d="M61 637h1686v-166h-1686v166z" />
    <glyph glyph-name="emdash" unicode="&#x2014;" horiz-adv-x="2349" 
d="M61 637h2247v-166h-2247v166z" />
    <glyph glyph-name="quoteleft" unicode="&#x2018;" horiz-adv-x="483" 
d="M289 1098h-189l140 393h141z" />
    <glyph glyph-name="quoteright" unicode="&#x2019;" horiz-adv-x="483" 
d="M190 1491h189l-139 -393h-142z" />
    <glyph glyph-name="quotesinglbase" unicode="&#x201a;" horiz-adv-x="698" 
d="M154 117h188l-139 -391h-142z" />
    <glyph glyph-name="quotedblleft" unicode="&#x201c;" horiz-adv-x="776" 
d="M299 1100h-188l139 391h141zM594 1100h-188l139 391h141z" />
    <glyph glyph-name="quotedblright" unicode="&#x201d;" horiz-adv-x="776" 
d="M188 1489h189l-139 -391h-142zM481 1489h189l-140 -391h-141z" />
    <glyph glyph-name="quotedblbase" unicode="&#x201e;" horiz-adv-x="698" 
d="M154 117h188l-139 -391h-142z" />
    <glyph glyph-name="dagger" unicode="&#x2020;" horiz-adv-x="1159" 
d="M954 1098v-166h-305v-1096h-139v1096h-305v166h305v520h139v-520h305z" />
    <glyph glyph-name="daggerdbl" unicode="&#x2021;" horiz-adv-x="1159" 
d="M954 932h-305v-408h305v-166h-305v-522h-139v522h-305v166h305v408h-305v166h305v520h139v-520h305v-166z" />
    <glyph glyph-name="bullet" unicode="&#x2022;" horiz-adv-x="464" 
d="M213 453q-63 0 -107.5 43.5t-44.5 105.5q0 64 44.5 108t107.5 44q64 0 106.5 -43.5t42.5 -108.5q0 -62 -42.5 -105.5t-106.5 -43.5z" />
    <glyph glyph-name="ellipsis" unicode="&#x2026;" horiz-adv-x="970" 
d="M162 -20q-41 0 -71 29.5t-30 70.5q0 42 29.5 71t71.5 29q43 0 71.5 -28.5t28.5 -71.5q0 -42 -29 -71t-71 -29zM465 -20q-41 0 -70.5 29.5t-29.5 70.5q0 42 29 71t71 29q43 0 71.5 -28.5t28.5 -71.5q0 -42 -29 -71t-71 -29zM768 -20q-41 0 -70.5 29.5t-29.5 70.5
q0 42 29 71t71 29q43 0 71.5 -28.5t28.5 -71.5q0 -42 -29 -71t-71 -29z" />
    <glyph glyph-name="perthousand" unicode="&#x2030;" horiz-adv-x="2805" 
d="M543 799q-141 0 -239.5 98.5t-98.5 239.5t98.5 239.5t239.5 98.5t239.5 -98.5t98.5 -239.5t-98.5 -239.5t-239.5 -98.5zM1671 1454l-1098 -1454h-165l1097 1454h166zM543 930q88 0 147.5 59.5t59.5 147.5t-59.5 147t-147.5 59t-147.5 -59t-59.5 -147t59.5 -147.5
t147.5 -59.5zM1524 -20q-141 0 -239.5 98t-98.5 239t98.5 239.5t239.5 98.5t239.5 -98.5t98.5 -239.5t-98.5 -239t-239.5 -98zM2304 -20q-141 0 -239.5 98t-98.5 239t98.5 239.5t239.5 98.5t239.5 -98.5t98.5 -239.5t-98.5 -239t-239.5 -98zM1524 111q88 0 148.5 59.5
t60.5 146.5q0 88 -60.5 147.5t-148.5 59.5t-147.5 -59.5t-59.5 -147.5t59.5 -147t147.5 -59zM2304 111q88 0 147.5 59t59.5 147t-59.5 147.5t-147.5 59.5t-147.5 -59.5t-59.5 -147.5t59.5 -147t147.5 -59z" />
    <glyph glyph-name="guilsinglleft" unicode="&#x2039;" horiz-adv-x="815" 
d="M651 840l-252 -351l252 -348h-194l-252 348l252 351h194z" />
    <glyph glyph-name="guilsinglright" unicode="&#x203a;" horiz-adv-x="770" 
d="M354 840l252 -351l-252 -348h-194l252 348l-252 351h194z" />
    <glyph glyph-name="fraction" unicode="&#x2044;" horiz-adv-x="1429" 
d="M1368 1454l-1098 -1454h-168l1098 1454h168z" />
    <glyph glyph-name="Euro" unicode="&#x20ac;" horiz-adv-x="1828" 
d="M1208 1309q-116 0 -221 -45t-181.5 -122t-121.5 -185.5t-45 -229.5v-25h569l-14 -59h-549q5 -37 19 -84h495l-14 -59h-463q67 -160 209 -257.5t317 -97.5q243 0 410 158v-178q-169 -145 -430 -145q-244 0 -433 144.5t-259 375.5h-291l14 59h262q-6 29 -14 84h-213l14 59
h195v25q0 154 56.5 292t152.5 238t231 159t285 59q260 0 430 -146v-178q-171 158 -410 158z" />
    <glyph glyph-name="trademark" unicode="&#x2122;" horiz-adv-x="1748" 
d="M735 1454v-131h-229v-483h-113v483h-229v131h571zM1473 1454h112v-614h-112v409l-238 -409h-45l-238 409v-409h-112v614h112l260 -450z" />
    <glyph glyph-name="arrowleft" unicode="&#x2190;" horiz-adv-x="1886" 
d="M1681 821v-141h-1226l250 -139v-162l-500 299v141l500 299v-162l-246 -137z" />
    <glyph glyph-name="arrowup" unicode="&#x2191;" horiz-adv-x="1148" 
d="M944 1036h-162l-139 248v-1284h-139v1284l-137 -248h-162l299 500h141z" />
    <glyph glyph-name="arrowright" unicode="&#x2192;" horiz-adv-x="1886" 
d="M1182 1118l499 -299v-141l-499 -299v162l250 139h-1227v141l1222 -2l-245 137v162z" />
    <glyph glyph-name="arrowdown" unicode="&#x2193;" horiz-adv-x="1148" 
d="M782 500h162l-299 -500h-141l-299 500h162l137 -246v1282h139v-1286z" />
    <glyph glyph-name="arrowboth" unicode="&#x2194;" horiz-adv-x="1945" 
d="M1241 1118l500 -299v-141l-500 -299v162l250 139h-1036l250 -139v-160l-500 297v143l500 297v-162l-246 -137h1026l-244 137v162z" />
    <glyph glyph-name="arrowupdn" unicode="&#x2195;" horiz-adv-x="1148" 
d="M645 254l137 246h162l-299 -500h-141l-299 500h162l139 -250v1036l-139 -250h-162l299 500h141l299 -500h-162l-137 246v-1028z" />
    <glyph glyph-name="uni2196" unicode="&#x2196;" horiz-adv-x="1595" 
d="M1391 252l-99 -98l-907 907l78 -273l-115 -114l-143 565l100 100l565 -143l-114 -115l-273 78z" />
    <glyph glyph-name="uni2197" unicode="&#x2197;" horiz-adv-x="1595" 
d="M1290 1339l101 -100l-144 -565l-114 114l77 273l-907 -907l-98 98l907 907l-272 -78l-115 115z" />
    <glyph glyph-name="uni2198" unicode="&#x2198;" horiz-adv-x="1595" 
d="M1247 905l144 -565l-101 -100l-565 143l115 115l272 -78l-907 907l98 98l907 -907l-77 273z" />
    <glyph glyph-name="uni2199" unicode="&#x2199;" horiz-adv-x="1595" 
d="M483 420l273 78l114 -115l-565 -143l-100 100l143 565l115 -114l-78 -273l907 907l99 -98z" />
    <glyph glyph-name="minus" unicode="&#x2212;" horiz-adv-x="1148" 
d="M223 668h748v-166h-748v166z" />
    <glyph glyph-name="approxequal" unicode="&#x2248;" horiz-adv-x="1257" 
d="M205 715q7 97 64.5 162t166.5 65q43 0 83 -15t70.5 -37t60 -43.5t64.5 -36.5t70 -15q57 0 88 29.5t31 80.5l150 -26q-8 -98 -66 -163t-168 -65q-43 0 -83 15t-70.5 37t-60 44t-63.5 37t-69 15q-56 0 -87.5 -32t-31.5 -79zM205 387q7 97 64.5 162t166.5 65q43 0 83 -15
t70.5 -37t60 -43.5t64.5 -36.5t70 -15q57 0 88 30t31 81l150 -27q-4 -46 -19 -85t-42 -72t-71.5 -51.5t-101.5 -18.5q-52 0 -102 23t-82 50.5t-76 50.5t-86 23q-56 0 -87.5 -32t-31.5 -79z" />
    <glyph glyph-name="notequal" unicode="&#x2260;" horiz-adv-x="1148" 
d="M954 645h-282l-47 -125h329v-166h-391l-74 -200h-143l74 200h-215v166h276l47 125h-323v168h387l78 209h143l-78 -209h219v-168z" />
    <glyph glyph-name="lessequal" unicode="&#x2264;" horiz-adv-x="1148" 
d="M944 1098v-156l-561 -225l561 -223v-156l-749 301v158zM197 23v165h747v-165h-747z" />
    <glyph glyph-name="greaterequal" unicode="&#x2265;" horiz-adv-x="1159" 
d="M205 1098l749 -301v-158l-749 -301v156l561 223l-561 225v156zM205 23v165h747v-165h-747z" />
    <glyph glyph-name="lozenge" unicode="&#x25ca;" horiz-adv-x="1320" 
d="M739 1454l377 -819l-377 -819h-157l-377 819l377 819h157zM662 -12l296 647l-296 647l-300 -647z" />
    <glyph glyph-name="i.loclTRK" horiz-adv-x="448" 
d="M209 1210q-41 0 -70.5 30t-29.5 71q0 42 29 71t71 29q43 0 71.5 -28.5t28.5 -71.5q0 -42 -29 -71.5t-71 -29.5zM299 1036v-1036h-176v1036h176z" />
    <glyph glyph-name="a.ss01" horiz-adv-x="1241" 
d="M684 1057q99 0 173.5 -25t119.5 -66.5t73 -104t38 -127.5t10 -146v-588h-166l-8 55v21q-43 -31 -134 -63.5t-198 -32.5q-77 0 -147.5 18.5t-130 55t-95 99t-35.5 142.5q0 79 35.5 140.5t95 97t130 53.5t147.5 18q108 0 200.5 -33.5t131.5 -66.5v84q0 75 -12 130t-41 100
t-83.5 68t-134.5 23q-178 0 -399 -125v144q222 129 430 129zM924 213v158q-23 38 -108 75t-181 37q-39 0 -76 -6t-73.5 -20.5t-64 -35.5t-44.5 -53.5t-17 -72.5q0 -50 25 -89.5t66.5 -61.5t88 -33t95.5 -11q96 0 181 37.5t108 75.5z" />
    <glyph glyph-name="aacute.ss01" horiz-adv-x="1241" 
d="M946 1554l-217 -301h-139l168 301h188zM684 1057q99 0 173.5 -25t119.5 -66.5t73 -104t38 -127.5t10 -146v-588h-166l-8 55v21q-43 -31 -134 -63.5t-198 -32.5q-77 0 -147.5 18.5t-130 55t-95 99t-35.5 142.5q0 79 35.5 140.5t95 97t130 53.5t147.5 18q108 0 200.5 -33.5
t131.5 -66.5v84q0 75 -12 130t-41 100t-83.5 68t-134.5 23q-178 0 -399 -125v144q222 129 430 129zM924 213v158q-23 38 -108 75t-181 37q-39 0 -76 -6t-73.5 -20.5t-64 -35.5t-44.5 -53.5t-17 -72.5q0 -50 25 -89.5t66.5 -61.5t88 -33t95.5 -11q96 0 181 37.5t108 75.5z
" />
    <glyph glyph-name="abreve.ss01" horiz-adv-x="1241" 
d="M662 1253q-145 0 -246 84t-101 217h140q0 -30 11.5 -60.5t34.5 -58t65 -44.5t96 -17t96 17t64.5 44.5t34 58t11.5 60.5h140q0 -133 -100.5 -217t-245.5 -84zM684 1057q99 0 173.5 -25t119.5 -66.5t73 -104t38 -127.5t10 -146v-588h-166l-8 55v21q-43 -31 -134 -63.5
t-198 -32.5q-77 0 -147.5 18.5t-130 55t-95 99t-35.5 142.5q0 79 35.5 140.5t95 97t130 53.5t147.5 18q108 0 200.5 -33.5t131.5 -66.5v84q0 75 -12 130t-41 100t-83.5 68t-134.5 23q-178 0 -399 -125v144q222 129 430 129zM924 213v158q-23 38 -108 75t-181 37
q-39 0 -76 -6t-73.5 -20.5t-64 -35.5t-44.5 -53.5t-17 -72.5q0 -50 25 -89.5t66.5 -61.5t88 -33t95.5 -11q96 0 181 37.5t108 75.5z" />
    <glyph glyph-name="acircumflex.ss01" horiz-adv-x="1241" 
d="M664 1458l-140 -205h-162l230 301h141l230 -301h-162zM684 1057q99 0 173.5 -25t119.5 -66.5t73 -104t38 -127.5t10 -146v-588h-166l-8 55v21q-43 -31 -134 -63.5t-198 -32.5q-77 0 -147.5 18.5t-130 55t-95 99t-35.5 142.5q0 79 35.5 140.5t95 97t130 53.5t147.5 18
q108 0 200.5 -33.5t131.5 -66.5v84q0 75 -12 130t-41 100t-83.5 68t-134.5 23q-178 0 -399 -125v144q222 129 430 129zM924 213v158q-23 38 -108 75t-181 37q-39 0 -76 -6t-73.5 -20.5t-64 -35.5t-44.5 -53.5t-17 -72.5q0 -50 25 -89.5t66.5 -61.5t88 -33t95.5 -11
q96 0 181 37.5t108 75.5z" />
    <glyph glyph-name="adieresis.ss01" horiz-adv-x="1241" 
d="M492 1309q-41 0 -71 29.5t-30 70.5q0 42 29.5 71t71.5 29q43 0 71.5 -28.5t28.5 -71.5q0 -42 -29 -71t-71 -29zM829 1309q-41 0 -70.5 29.5t-29.5 70.5q0 42 29 71t71 29q43 0 72 -28.5t29 -71.5q0 -41 -29 -70.5t-72 -29.5zM684 1057q99 0 173.5 -25t119.5 -66.5
t73 -104t38 -127.5t10 -146v-588h-166l-8 55v21q-43 -31 -134 -63.5t-198 -32.5q-77 0 -147.5 18.5t-130 55t-95 99t-35.5 142.5q0 79 35.5 140.5t95 97t130 53.5t147.5 18q108 0 200.5 -33.5t131.5 -66.5v84q0 75 -12 130t-41 100t-83.5 68t-134.5 23q-178 0 -399 -125v144
q222 129 430 129zM924 213v158q-23 38 -108 75t-181 37q-39 0 -76 -6t-73.5 -20.5t-64 -35.5t-44.5 -53.5t-17 -72.5q0 -50 25 -89.5t66.5 -61.5t88 -33t95.5 -11q96 0 181 37.5t108 75.5z" />
    <glyph glyph-name="agrave.ss01" horiz-adv-x="1241" 
d="M731 1253h-139l-217 301h188zM684 1057q99 0 173.5 -25t119.5 -66.5t73 -104t38 -127.5t10 -146v-588h-166l-8 55v21q-43 -31 -134 -63.5t-198 -32.5q-77 0 -147.5 18.5t-130 55t-95 99t-35.5 142.5q0 79 35.5 140.5t95 97t130 53.5t147.5 18q108 0 200.5 -33.5
t131.5 -66.5v84q0 75 -12 130t-41 100t-83.5 68t-134.5 23q-178 0 -399 -125v144q222 129 430 129zM924 213v158q-23 38 -108 75t-181 37q-39 0 -76 -6t-73.5 -20.5t-64 -35.5t-44.5 -53.5t-17 -72.5q0 -50 25 -89.5t66.5 -61.5t88 -33t95.5 -11q96 0 181 37.5t108 75.5z
" />
    <glyph glyph-name="amacron.ss01" horiz-adv-x="1241" 
d="M899 1491v-166h-483v166h483zM684 1057q99 0 173.5 -25t119.5 -66.5t73 -104t38 -127.5t10 -146v-588h-166l-8 55v21q-43 -31 -134 -63.5t-198 -32.5q-77 0 -147.5 18.5t-130 55t-95 99t-35.5 142.5q0 79 35.5 140.5t95 97t130 53.5t147.5 18q108 0 200.5 -33.5
t131.5 -66.5v84q0 75 -12 130t-41 100t-83.5 68t-134.5 23q-178 0 -399 -125v144q222 129 430 129zM924 213v158q-23 38 -108 75t-181 37q-39 0 -76 -6t-73.5 -20.5t-64 -35.5t-44.5 -53.5t-17 -72.5q0 -50 25 -89.5t66.5 -61.5t88 -33t95.5 -11q96 0 181 37.5t108 75.5z
" />
    <glyph glyph-name="aogonek.ss01" horiz-adv-x="1241" 
d="M1081 -190q65 0 160 55v-141q-80 -80 -190 -80q-58 0 -103 32t-64 81.5t-5 115.5t65 127h-12l-8 55v21q-43 -31 -134 -63.5t-198 -32.5q-77 0 -147.5 18.5t-130 55t-95 99t-35.5 142.5q0 79 35.5 140.5t95 97t130 53.5t147.5 18q108 0 200.5 -33.5t131.5 -66.5v84
q0 75 -12 130t-41 100t-83.5 68t-134.5 23q-178 0 -399 -125v144q222 129 430 129q99 0 173.5 -25t119.5 -66.5t73 -104t38 -127.5t10 -146v-588h-15q-44 -44 -59.5 -89t0.5 -73t57 -28zM924 213v158q-23 38 -108 75t-181 37q-39 0 -76 -6t-73.5 -20.5t-64 -35.5
t-44.5 -53.5t-17 -72.5q0 -50 25 -89.5t66.5 -61.5t88 -33t95.5 -11q96 0 181 37.5t108 75.5z" />
    <glyph glyph-name="aring.ss01" horiz-adv-x="1241" 
d="M662 1264q-65 0 -110.5 45.5t-45.5 109.5q0 65 46 110.5t110 45.5t109.5 -45.5t45.5 -110.5t-45.5 -110t-109.5 -45zM662 1489q-29 0 -49.5 -20.5t-20.5 -49.5t20.5 -49t49.5 -20t49 20t20 49t-20 49.5t-49 20.5zM684 1057q99 0 173.5 -25t119.5 -66.5t73 -104t38 -127.5
t10 -146v-588h-166l-8 55v21q-43 -31 -134 -63.5t-198 -32.5q-77 0 -147.5 18.5t-130 55t-95 99t-35.5 142.5q0 79 35.5 140.5t95 97t130 53.5t147.5 18q108 0 200.5 -33.5t131.5 -66.5v84q0 75 -12 130t-41 100t-83.5 68t-134.5 23q-178 0 -399 -125v144q222 129 430 129z
M924 213v158q-23 38 -108 75t-181 37q-39 0 -76 -6t-73.5 -20.5t-64 -35.5t-44.5 -53.5t-17 -72.5q0 -50 25 -89.5t66.5 -61.5t88 -33t95.5 -11q96 0 181 37.5t108 75.5z" />
    <glyph glyph-name="atilde.ss01" horiz-adv-x="1241" 
d="M506 1403q-56 0 -87.5 -32t-31.5 -79l-149 27q7 97 64.5 162t166.5 65q43 0 83 -15t70.5 -37t60 -43.5t64.5 -36.5t70 -15q57 0 88 29.5t31 80.5l149 -26q-8 -98 -65.5 -163t-167.5 -65q-43 0 -83 15t-70.5 37t-60 44t-63.5 37t-69 15zM684 1057q99 0 173.5 -25
t119.5 -66.5t73 -104t38 -127.5t10 -146v-588h-166l-8 55v21q-43 -31 -134 -63.5t-198 -32.5q-77 0 -147.5 18.5t-130 55t-95 99t-35.5 142.5q0 79 35.5 140.5t95 97t130 53.5t147.5 18q108 0 200.5 -33.5t131.5 -66.5v84q0 75 -12 130t-41 100t-83.5 68t-134.5 23
q-178 0 -399 -125v144q222 129 430 129zM924 213v158q-23 38 -108 75t-181 37q-39 0 -76 -6t-73.5 -20.5t-64 -35.5t-44.5 -53.5t-17 -72.5q0 -50 25 -89.5t66.5 -61.5t88 -33t95.5 -11q96 0 181 37.5t108 75.5z" />
    <glyph glyph-name="ae.ss01" horiz-adv-x="2066" 
d="M1923 508v-57h-793q17 -160 115.5 -241t267.5 -81q153 0 353 111v-136q-67 -54 -169.5 -89t-213.5 -35q-241 0 -385 147v-127h-166l-8 55v21q-43 -31 -134 -63.5t-198 -32.5q-77 0 -147.5 18.5t-130 55t-95 99t-35.5 142.5q0 79 35.5 140.5t95 97t130 53.5t147.5 18
q108 0 200.5 -33.5t131.5 -66.5v84q0 75 -12 130t-41 100t-83.5 68t-134.5 23q-178 0 -399 -125v144q222 129 430 129q280 0 369 -199q68 93 170 146t227 53q146 0 254.5 -72.5t163.5 -196t55 -280.5zM1454 899q-131 0 -219 -83.5t-105 -233.5h623q-15 148 -91.5 232.5
t-207.5 84.5zM924 213v158q-23 38 -108 75t-181 37q-39 0 -76 -6t-73.5 -20.5t-64 -35.5t-44.5 -53.5t-17 -72.5q0 -50 25 -89.5t66.5 -61.5t88 -33t95.5 -11q96 0 181 37.5t108 75.5z" />
    <glyph glyph-name="e.ss01" horiz-adv-x="1300" 
d="M1157 508v-57h-795q17 -159 117.5 -240.5t268.5 -81.5q153 0 352 111v-136q-67 -54 -169.5 -89t-213.5 -35q-241 0 -387 149.5t-146 394.5q0 149 63 270.5t177.5 192t259.5 70.5q146 0 254.5 -72.5t163.5 -196t55 -280.5zM688 899q-133 0 -221 -83.5t-105 -233.5h625
q-15 147 -92 232t-207 85z" />
    <glyph glyph-name="eacute.ss01" horiz-adv-x="1300" 
d="M971 1554l-217 -301h-140l168 301h189zM1157 508v-57h-795q17 -159 117.5 -240.5t268.5 -81.5q153 0 352 111v-136q-67 -54 -169.5 -89t-213.5 -35q-241 0 -387 149.5t-146 394.5q0 149 63 270.5t177.5 192t259.5 70.5q146 0 254.5 -72.5t163.5 -196t55 -280.5zM688 899
q-133 0 -221 -83.5t-105 -233.5h625q-15 147 -92 232t-207 85z" />
    <glyph glyph-name="ecaron.ss01" horiz-adv-x="1300" 
d="M610 1253l-229 301h162l139 -204l137 204h162l-229 -301h-142zM1157 508v-57h-795q17 -159 117.5 -240.5t268.5 -81.5q153 0 352 111v-136q-67 -54 -169.5 -89t-213.5 -35q-241 0 -387 149.5t-146 394.5q0 149 63 270.5t177.5 192t259.5 70.5q146 0 254.5 -72.5
t163.5 -196t55 -280.5zM688 899q-133 0 -221 -83.5t-105 -233.5h625q-15 147 -92 232t-207 85z" />
    <glyph glyph-name="ecircumflex.ss01" horiz-adv-x="1300" 
d="M686 1458l-139 -205h-162l229 301h142l229 -301h-162zM1157 508v-57h-795q17 -159 117.5 -240.5t268.5 -81.5q153 0 352 111v-136q-67 -54 -169.5 -89t-213.5 -35q-241 0 -387 149.5t-146 394.5q0 149 63 270.5t177.5 192t259.5 70.5q146 0 254.5 -72.5t163.5 -196
t55 -280.5zM688 899q-133 0 -221 -83.5t-105 -233.5h625q-15 147 -92 232t-207 85z" />
    <glyph glyph-name="edieresis.ss01" horiz-adv-x="1300" 
d="M516 1309q-41 0 -70.5 29.5t-29.5 70.5q0 42 29 71t71 29q43 0 71.5 -28.5t28.5 -71.5q0 -42 -29 -71t-71 -29zM854 1309q-41 0 -70.5 29.5t-29.5 70.5q0 42 29 71t71 29q43 0 71.5 -28.5t28.5 -71.5q0 -42 -29 -71t-71 -29zM1157 508v-57h-795q17 -159 117.5 -240.5
t268.5 -81.5q153 0 352 111v-136q-67 -54 -169.5 -89t-213.5 -35q-241 0 -387 149.5t-146 394.5q0 149 63 270.5t177.5 192t259.5 70.5q146 0 254.5 -72.5t163.5 -196t55 -280.5zM688 899q-133 0 -221 -83.5t-105 -233.5h625q-15 147 -92 232t-207 85z" />
    <glyph glyph-name="edotaccent.ss01" horiz-adv-x="1300" 
d="M684 1309q-41 0 -70.5 29.5t-29.5 70.5q0 42 29 71t71 29q43 0 71.5 -28.5t28.5 -71.5q0 -42 -29 -71t-71 -29zM1157 508v-57h-795q17 -159 117.5 -240.5t268.5 -81.5q153 0 352 111v-136q-67 -54 -169.5 -89t-213.5 -35q-241 0 -387 149.5t-146 394.5q0 149 63 270.5
t177.5 192t259.5 70.5q146 0 254.5 -72.5t163.5 -196t55 -280.5zM688 899q-133 0 -221 -83.5t-105 -233.5h625q-15 147 -92 232t-207 85z" />
    <glyph glyph-name="egrave.ss01" horiz-adv-x="1300" 
d="M754 1253h-140l-217 301h189zM1157 508v-57h-795q17 -159 117.5 -240.5t268.5 -81.5q153 0 352 111v-136q-67 -54 -169.5 -89t-213.5 -35q-241 0 -387 149.5t-146 394.5q0 149 63 270.5t177.5 192t259.5 70.5q146 0 254.5 -72.5t163.5 -196t55 -280.5zM688 899
q-133 0 -221 -83.5t-105 -233.5h625q-15 147 -92 232t-207 85z" />
    <glyph glyph-name="emacron.ss01" horiz-adv-x="1300" 
d="M924 1491v-166h-484v166h484zM1157 508v-57h-795q17 -159 117.5 -240.5t268.5 -81.5q153 0 352 111v-136q-67 -54 -169.5 -89t-213.5 -35q-241 0 -387 149.5t-146 394.5q0 149 63 270.5t177.5 192t259.5 70.5q146 0 254.5 -72.5t163.5 -196t55 -280.5zM688 899
q-133 0 -221 -83.5t-105 -233.5h625q-15 147 -92 232t-207 85z" />
    <glyph glyph-name="eogonek.ss01" horiz-adv-x="1300" 
d="M1157 508v-57h-795q17 -159 117.5 -240.5t268.5 -81.5q153 0 352 111v-136q-62 -49 -153 -82.5t-191 -39.5q-35 -42 -45 -82t6.5 -65t54.5 -25q65 0 160 55v-141q-80 -80 -191 -80q-57 0 -101 30.5t-64 78t-8.5 110.5t57.5 123q-202 29 -321.5 174t-119.5 364
q0 149 63 270.5t177.5 192t259.5 70.5q146 0 254.5 -72.5t163.5 -196t55 -280.5zM688 899q-133 0 -221 -83.5t-105 -233.5h625q-15 147 -92 232t-207 85z" />
    <glyph glyph-name="uni1EBD.ss01" horiz-adv-x="1300" 
d="M528 1403q-56 0 -87 -32t-31 -79l-150 27q7 97 64.5 162t167.5 65q43 0 83 -15t70.5 -37t60 -43.5t64.5 -36.5t70 -15q57 0 87.5 29.5t30.5 80.5l150 -26q-8 -98 -66 -163t-168 -65q-43 0 -83 15t-70.5 37t-60 44t-63.5 37t-69 15zM1157 508v-57h-795
q17 -159 117.5 -240.5t268.5 -81.5q153 0 352 111v-136q-67 -54 -169.5 -89t-213.5 -35q-241 0 -387 149.5t-146 394.5q0 149 63 270.5t177.5 192t259.5 70.5q146 0 254.5 -72.5t163.5 -196t55 -280.5zM688 899q-133 0 -221 -83.5t-105 -233.5h625q-15 147 -92 232t-207 85z
" />
    <glyph glyph-name="g.ss01" horiz-adv-x="1445" 
d="M1137 1036h166v-962q0 -268 -141.5 -417t-391.5 -149q-142 0 -269 43.5t-212 92.5v143q52 -27 78 -39t93.5 -39t136.5 -40t140 -13q188 0 288.5 104.5t100.5 313.5v162q-51 -114 -163 -185t-254 -71q-109 0 -207 42.5t-167.5 115t-110 172.5t-40.5 210q0 146 68.5 269
t189.5 195.5t267 72.5q142 0 254 -71t163 -185zM735 145q158 0 265.5 110t107.5 265q0 153 -107.5 262t-265.5 109q-157 0 -266 -109.5t-109 -261.5q0 -155 109 -265t266 -110z" />
    <glyph glyph-name="gbreve.ss01" horiz-adv-x="1445" 
d="M762 1253q-145 0 -245.5 84t-100.5 217h139q0 -30 11.5 -60.5t34.5 -58t65 -44.5t96 -17t96 17t65 44.5t34.5 58t11.5 60.5h139q0 -133 -100.5 -217t-245.5 -84zM1137 1036h166v-962q0 -268 -141.5 -417t-391.5 -149q-142 0 -269 43.5t-212 92.5v143q52 -27 78 -39
t93.5 -39t136.5 -40t140 -13q188 0 288.5 104.5t100.5 313.5v162q-51 -114 -163 -185t-254 -71q-109 0 -207 42.5t-167.5 115t-110 172.5t-40.5 210q0 146 68.5 269t189.5 195.5t267 72.5q142 0 254 -71t163 -185zM735 145q158 0 265.5 110t107.5 265q0 153 -107.5 262
t-265.5 109q-157 0 -266 -109.5t-109 -261.5q0 -155 109 -265t266 -110z" />
    <glyph glyph-name="gcommaaccent.ss01" horiz-adv-x="1445" 
d="M946 1653l-92 -391h-188l139 391h141zM1137 1036h166v-962q0 -268 -141.5 -417t-391.5 -149q-142 0 -269 43.5t-212 92.5v143q52 -27 78 -39t93.5 -39t136.5 -40t140 -13q188 0 288.5 104.5t100.5 313.5v162q-51 -114 -163 -185t-254 -71q-109 0 -207 42.5t-167.5 115
t-110 172.5t-40.5 210q0 146 68.5 269t189.5 195.5t267 72.5q142 0 254 -71t163 -185zM735 145q158 0 265.5 110t107.5 265q0 153 -107.5 262t-265.5 109q-157 0 -266 -109.5t-109 -261.5q0 -155 109 -265t266 -110z" />
    <glyph glyph-name="gdotaccent.ss01" horiz-adv-x="1445" 
d="M762 1309q-41 0 -70.5 29.5t-29.5 70.5q0 42 29 71t71 29q43 0 71.5 -28.5t28.5 -71.5q0 -42 -29 -71t-71 -29zM1137 1036h166v-962q0 -268 -141.5 -417t-391.5 -149q-142 0 -269 43.5t-212 92.5v143q52 -27 78 -39t93.5 -39t136.5 -40t140 -13q188 0 288.5 104.5
t100.5 313.5v162q-51 -114 -163 -185t-254 -71q-109 0 -207 42.5t-167.5 115t-110 172.5t-40.5 210q0 146 68.5 269t189.5 195.5t267 72.5q142 0 254 -71t163 -185zM735 145q158 0 265.5 110t107.5 265q0 153 -107.5 262t-265.5 109q-157 0 -266 -109.5t-109 -261.5
q0 -155 109 -265t266 -110z" />
    <glyph glyph-name="i.ss01" horiz-adv-x="499" 
d="M270 1210q-41 0 -70.5 30t-29.5 71q0 42 29 71t71 29q43 0 72 -28.5t29 -71.5q0 -42 -29.5 -71.5t-71.5 -29.5zM377 1036v-1036h-174v870l-80 9v157h254z" />
    <glyph glyph-name="dotlessi.ss01" horiz-adv-x="499" 
d="M377 1036v-1036h-174v870l-80 9v157h254z" />
    <glyph glyph-name="iacute.ss01" horiz-adv-x="499" 
d="M369 1554h188l-217 -301h-139zM377 1036v-1036h-174v870l-80 9v157h254z" />
    <glyph glyph-name="icircumflex.ss01" horiz-adv-x="499" 
d="M342 1554l229 -301h-161l-138 205l-139 -205h-162l230 301h141zM123 879v157h254v-1036h-174v870z" />
    <glyph glyph-name="idieresis.ss01" horiz-adv-x="499" 
d="M102 1210q-41 0 -70.5 30t-29.5 71q0 42 29 71t71 29q43 0 72 -28.5t29 -71.5q0 -42 -29.5 -71.5t-71.5 -29.5zM440 1210q-41 0 -70.5 30t-29.5 71q0 42 29 71t71 29q43 0 72 -28.5t29 -71.5q0 -42 -29.5 -71.5t-71.5 -29.5zM377 1036v-1036h-174v870l-80 9v157h254z" />
    <glyph glyph-name="i.loclTRK.ss01" horiz-adv-x="499" 
d="M270 1210q-41 0 -70.5 30t-29.5 71q0 42 29 71t71 29q43 0 72 -28.5t29 -71.5q0 -42 -29.5 -71.5t-71.5 -29.5zM377 1036v-1036h-174v870l-80 9v157h254z" />
    <glyph glyph-name="igrave.ss01" horiz-adv-x="499" 
d="M174 1554l168 -301h-139l-217 301h188zM377 1036v-1036h-174v870l-80 9v157h254z" />
    <glyph glyph-name="imacron.ss01" horiz-adv-x="499" 
d="M27 1491h483v-166h-483v166zM377 1036v-1036h-174v870l-80 9v157h254z" />
    <glyph glyph-name="iogonek.ss01" horiz-adv-x="499" 
d="M270 1210q-41 0 -70.5 30t-29.5 71q0 42 29 71t71 29q43 0 72 -28.5t29 -71.5q0 -42 -29.5 -71.5t-71.5 -29.5zM356 -190q65 0 160 55v-141q-80 -80 -190 -80q-58 0 -103 32t-64 81.5t-5 115.5t65 127h-16v870l-80 9v157h254v-1036h-19q-44 -44 -59.5 -89t0.5 -73t57 -28
z" />
    <glyph glyph-name="j.ss01" horiz-adv-x="491" 
d="M299 1208q-41 0 -70.5 30t-29.5 71q0 42 29 71t71 29q43 0 71.5 -28.5t28.5 -71.5q0 -42 -29 -71.5t-71 -29.5zM408 1036v-1036l-164 -471h-183l172 483v858l-79 9v157h254z" />
    <glyph glyph-name="l.ss01" horiz-adv-x="520" 
d="M397 1536v-1536h-174v1370l-80 8v158h254z" />
    <glyph glyph-name="lacute.ss01" horiz-adv-x="520" 
d="M393 2054h189l-217 -301h-140zM397 1536v-1536h-174v1370l-80 8v158h254z" />
    <glyph glyph-name="lcaron.ss01" horiz-adv-x="675" 
d="M397 1536v-1536h-174v1370l-80 8v158h254zM582 1489h188l-139 -391h-142z" />
    <glyph glyph-name="lcommaaccent.ss01" horiz-adv-x="520" 
d="M397 1536v-1536h-174v1370l-80 8v158h254zM217 -123h189l-140 -391h-141z" />
    <glyph glyph-name="lslash.ss01" horiz-adv-x="520" 
d="M580 889v-74l-183 -137v-678h-174v545l-190 -144v74l190 143v752l-80 8v158h254v-784z" />
    </font>
</defs>
</svg>
